<svg width="20" height="20" viewBox="0 0 20 20" fill="none" xmlns="http://www.w3.org/2000/svg">
<path d="M7.63209 4.76019L7.29654 4.00521C7.07715 3.51156 6.96744 3.26473 6.80338 3.07584C6.59778 2.83912 6.32977 2.66495 6.02994 2.57321C5.7907 2.5 5.5206 2.5 4.98039 2.5C4.19013 2.5 3.79501 2.5 3.46332 2.65191C3.0726 2.83085 2.71974 3.2194 2.57915 3.6255C2.45981 3.97025 2.49399 4.32452 2.56236 5.03308C3.29013 12.5752 7.42506 16.7101 14.9671 17.4379C15.6757 17.5062 16.03 17.5404 16.3747 17.4211C16.7808 17.2805 17.1694 16.9276 17.3483 16.5369C17.5002 16.2052 17.5002 15.8101 17.5002 15.0198C17.5002 14.4796 17.5002 14.2095 17.427 13.9703C17.3353 13.6704 17.1611 13.4024 16.9244 13.1968C16.7355 13.0328 16.4886 12.9231 15.995 12.7037L15.24 12.3681C14.7054 12.1305 14.4381 12.0117 14.1665 11.9859C13.9065 11.9612 13.6444 11.9976 13.4011 12.0924C13.1469 12.1914 12.9221 12.3787 12.4727 12.7532C12.0253 13.126 11.8016 13.3124 11.5283 13.4123C11.286 13.5008 10.9657 13.5336 10.7105 13.4959C10.4226 13.4535 10.2022 13.3357 9.76129 13.1001C8.38956 12.3671 7.63315 11.6107 6.9001 10.2389C6.6645 9.79805 6.54669 9.57762 6.50427 9.28973C6.46666 9.03454 6.49945 8.71418 6.58796 8.47189C6.68781 8.19857 6.87422 7.97488 7.24704 7.5275C7.62156 7.07807 7.80883 6.85335 7.90784 6.5991C8.00259 6.35578 8.03906 6.09367 8.01433 5.83373C7.9885 5.5621 7.8697 5.2948 7.63209 4.76019Z" stroke="#1565C0" stroke-width="1.5" stroke-linecap="round"/>
</svg>
