<svg width="17" height="19" viewBox="0 0 17 19" fill="none" xmlns="http://www.w3.org/2000/svg">
<path d="M8.25 0.75L3.25 0.75C1.18167 0.75 0.75 1.18167 0.75 3.25L0.75 17.4167L10.75 17.4167L10.75 3.25C10.75 1.18167 10.3183 0.75 8.25 0.75Z" stroke="#D0D0D0" stroke-width="1.5" stroke-linejoin="round"/>
<path d="M13.25 5.75L10.75 5.75L10.75 17.4167H15.75L15.75 8.25C15.75 6.18167 15.3183 5.75 13.25 5.75Z" stroke="#D0D0D0" stroke-width="1.5" stroke-linejoin="round"/>
<path d="M4.91797 4.08337L6.58464 4.08337M4.91797 6.58337L6.58464 6.58337M4.91797 9.08337L6.58464 9.08337" stroke="#D0D0D0" stroke-width="1.5" stroke-linecap="round" stroke-linejoin="round"/>
<path d="M7.83464 17.4167L7.83464 14.0834C7.83464 13.2977 7.83464 12.9049 7.59056 12.6608C7.34648 12.4167 6.95364 12.4167 6.16797 12.4167H5.33464C4.54896 12.4167 4.15612 12.4167 3.91205 12.6608C3.66797 12.9049 3.66797 13.2977 3.66797 14.0834L3.66797 17.4167" stroke="#D0D0D0" stroke-width="1.5" stroke-linejoin="round"/>
</svg>
