<svg width="20" height="20" viewBox="0 0 20 20" fill="none" xmlns="http://www.w3.org/2000/svg">
<path d="M17.0846 11.6666V8.33329C17.0846 5.1906 17.0846 3.61925 16.1083 2.64294C15.132 1.66663 13.5606 1.66663 10.4179 1.66663H9.58466C6.44199 1.66663 4.87066 1.66663 3.89435 2.64293C2.91804 3.61923 2.91803 5.19056 2.918 8.33323L2.91797 11.6666C2.91794 14.8093 2.91793 16.3807 3.89424 17.357C4.87055 18.3333 6.44191 18.3333 9.58464 18.3333H10.4179C13.5606 18.3333 15.132 18.3333 16.1083 17.357C17.0846 16.3807 17.0846 14.8093 17.0846 11.6666Z" stroke="#D0D0D0" stroke-width="1.5" stroke-linecap="round" stroke-linejoin="round"/>
<path d="M6.66797 5.83337H13.3346M6.66797 10H13.3346M6.66797 14.1667L10.0013 14.1667" stroke="#D0D0D0" stroke-width="1.5" stroke-linecap="round" stroke-linejoin="round"/>
</svg>
