<svg width="20" height="20" viewBox="0 0 20 20" fill="none" xmlns="http://www.w3.org/2000/svg">
<path d="M1.66797 11.6667C1.66797 9.32594 1.66797 8.15555 2.22974 7.31481C2.47293 6.95084 2.78543 6.63834 3.1494 6.39514C3.99015 5.83337 5.16053 5.83337 7.5013 5.83337H12.5013C14.8421 5.83337 16.0125 5.83337 16.8532 6.39514C17.2172 6.63834 17.5297 6.95084 17.7729 7.31481C18.3346 8.15555 18.3346 9.32594 18.3346 11.6667C18.3346 14.0075 18.3346 15.1779 17.7729 16.0186C17.5297 16.3826 17.2172 16.6951 16.8532 16.9383C16.0125 17.5 14.8421 17.5 12.5013 17.5H7.5013C5.16053 17.5 3.99015 17.5 3.1494 16.9383C2.78543 16.6951 2.47293 16.3826 2.22974 16.0186C1.66797 15.1779 1.66797 14.0075 1.66797 11.6667Z" stroke="#D0D0D0" stroke-width="1.5" stroke-linecap="round" stroke-linejoin="round"/>
<path d="M13.3346 5.83333C13.3346 4.26198 13.3346 3.47631 12.8465 2.98816C12.3583 2.5 11.5727 2.5 10.0013 2.5C8.42995 2.5 7.64428 2.5 7.15612 2.98816C6.66797 3.47631 6.66797 4.26198 6.66797 5.83333" stroke="#D0D0D0" stroke-width="1.5" stroke-linecap="round" stroke-linejoin="round"/>
<path d="M5 9.16663L5.54331 9.335C8.40424 10.2216 11.5958 10.2216 14.4567 9.335L15 9.16663M10 9.99996V11.6666" stroke="#D0D0D0" stroke-width="1.5" stroke-linecap="round" stroke-linejoin="round"/>
</svg>
