<svg width="20" height="20" viewBox="0 0 20 20" fill="none" xmlns="http://www.w3.org/2000/svg">
<path d="M10.0013 18.3333C14.6037 18.3333 18.3346 14.6023 18.3346 9.99996C18.3346 5.39759 14.6037 1.66663 10.0013 1.66663C5.39893 1.66663 1.66797 5.39759 1.66797 9.99996C1.66797 14.6023 5.39893 18.3333 10.0013 18.3333Z" stroke="#D0D0D0" stroke-width="1.5"/>
<path d="M10.0078 8.75694C9.31746 8.75694 8.75781 9.31658 8.75781 10.0069C8.75781 10.6973 9.31746 11.2569 10.0078 11.2569C10.6982 11.2569 11.2578 10.6973 11.2578 10.0069C11.2578 9.31658 10.6982 8.75694 10.0078 8.75694ZM10.0078 8.75694V5.83264M12.5136 12.5166L10.8897 10.8928" stroke="#D0D0D0" stroke-width="1.5" stroke-linecap="round" stroke-linejoin="round"/>
</svg>
