<svg width="30" height="30" viewBox="0 0 30 30" fill="none" xmlns="http://www.w3.org/2000/svg">
<path d="M8.125 4.375H5.625C4.93464 4.375 4.375 4.93464 4.375 5.625V10C4.375 13.797 7.45304 16.875 11.25 16.875C15.047 16.875 18.125 13.797 18.125 10V5.625C18.125 4.93464 17.5654 4.375 16.875 4.375H14.375" stroke="#5E5E5E" stroke-width="1.5" stroke-linecap="round" stroke-linejoin="round"/>
<path d="M23.125 19.375V20.9375C23.125 24.2167 20.4667 26.875 17.1875 26.875C13.9083 26.875 11.25 24.2167 11.25 20.9375V16.875" stroke="#5E5E5E" stroke-width="1.5" stroke-linecap="round" stroke-linejoin="round"/>
<path d="M14.375 3.125V5.625" stroke="#5E5E5E" stroke-width="1.5" stroke-linecap="round" stroke-linejoin="round"/>
<path d="M8.125 3.125V5.625" stroke="#5E5E5E" stroke-width="1.5" stroke-linecap="round" stroke-linejoin="round"/>
<path d="M25.625 16.875C25.625 18.2557 24.5057 19.375 23.125 19.375C21.7443 19.375 20.625 18.2557 20.625 16.875C20.625 15.4943 21.7443 14.375 23.125 14.375C24.5057 14.375 25.625 15.4943 25.625 16.875Z" stroke="#5E5E5E" stroke-width="1.5"/>
</svg>
