<svg width="39" height="30" viewBox="0 0 39 30" fill="none" xmlns="http://www.w3.org/2000/svg">
<path fill-rule="evenodd" clip-rule="evenodd" d="M26.0365 14.9997C26.0365 16.7678 25.3341 18.4635 24.0838 19.7137C22.8336 20.964 21.1379 21.6663 19.3698 21.6663C17.6017 21.6663 15.906 20.964 14.6557 19.7137C13.4055 18.4635 12.7031 16.7678 12.7031 14.9997C12.7031 13.2316 13.4055 11.5359 14.6557 10.2856C15.906 9.03539 17.6017 8.33301 19.3698 8.33301C21.1379 8.33301 22.8336 9.03539 24.0838 10.2856C25.3341 11.5359 26.0365 13.2316 26.0365 14.9997ZM22.7031 14.9997C22.7031 15.8837 22.3519 16.7316 21.7268 17.3567C21.1017 17.9818 20.2538 18.333 19.3698 18.333C18.4857 18.333 17.6379 17.9818 17.0128 17.3567C16.3876 16.7316 16.0365 15.8837 16.0365 14.9997C16.0365 14.1156 16.3876 13.2678 17.0128 12.6427C17.6379 12.0175 18.4857 11.6663 19.3698 11.6663C20.2538 11.6663 21.1017 12.0175 21.7268 12.6427C22.3519 13.2678 22.7031 14.1156 22.7031 14.9997Z" fill="#22C55E"/>
<path fill-rule="evenodd" clip-rule="evenodd" d="M19.37 0C28.69 0 36.52 6.37333 38.74 15C36.52 23.6267 28.69 30 19.37 30C10.05 30 2.22 23.6267 0 15C2.22 6.37333 10.05 0 19.37 0ZM19.37 26.6667C11.91 26.6667 5.58833 21.7633 3.465 15C5.58833 8.23667 11.91 3.33333 19.37 3.33333C26.83 3.33333 33.1517 8.23667 35.275 15C33.1517 21.7633 26.83 26.6667 19.37 26.6667Z" fill="#22C55E"/>
</svg>
