<svg width="30" height="30" viewBox="0 0 30 30" fill="none" xmlns="http://www.w3.org/2000/svg">
<path d="M29.815 6.09242C29.3719 3.88804 28.0749 2.04051 26.2958 1.08025C24.0534 -0.261606 21.404 -0.357791 19.0929 0.816536C17.4875 1.63097 16.0814 2.89062 14.9986 4.48069C13.9332 2.88598 12.5258 1.63716 10.9149 0.855336L10.9257 0.827413C8.61053 -0.356231 5.9532 -0.263144 3.70554 1.08027C1.92638 2.04053 0.628051 3.88809 0.184932 6.09244C-1.807 17.7986 12.9123 28.6668 14.5973 29.8674C14.8438 30.0442 15.1563 30.0442 15.4027 29.8674C17.0876 28.6667 31.8069 17.7982 29.815 6.09242ZM1.2423 6.33132C1.62346 4.50079 2.71168 2.9728 4.19722 2.1833C5.24233 1.56589 6.40195 1.24322 7.5764 1.24167C8.58383 1.23857 9.57912 1.48522 10.4963 1.96457C12.0398 2.75108 13.3718 4.0014 14.351 5.58527C14.4992 5.83037 14.7416 5.9762 15.0002 5.9762C15.2588 5.9762 15.5012 5.83037 15.6493 5.58527C16.5665 4.08365 17.8069 2.88293 19.2493 2.09955L19.5227 1.95528C19.823 1.80015 20.1341 1.67295 20.452 1.57211C20.7671 2.69059 20.9759 3.84631 21.0769 5.01753C21.2008 6.50366 21.1483 8.00374 20.922 9.47451C20.8627 9.86078 20.9435 10.2579 21.1469 10.5728L23.4069 14.0725C23.3436 14.2695 23.248 14.4495 23.1241 14.6046C23.0257 14.7209 22.9099 14.8171 22.7833 14.89C22.5638 15.0126 22.3766 15.1987 22.2392 15.4299C21.9685 16.0225 21.9604 16.7298 22.2203 17.3302L22.0466 17.4745C21.7112 17.7599 21.5927 18.2749 21.7611 18.7155L21.9564 19.2243L21.6533 19.7285L21.652 19.7269C21.5308 19.9301 21.4554 20.1659 21.4365 20.4111C21.4136 20.7136 21.3947 21.03 21.3853 21.3589H21.384C21.3611 21.9049 21.3799 22.451 21.4365 22.9939L21.4419 23.0498C21.3678 23.1274 21.2951 23.2003 21.221 23.2763L21.2224 23.2747C20.6567 23.3368 20.087 23.3321 19.5227 23.2577C17.9805 23.1336 16.0627 22.9815 15.0256 24.2536C14.3428 25.0913 14.1367 26.4021 14.394 28.2435C11.0202 25.687 -0.435768 16.1944 1.2423 6.33132ZM15.5009 28.3223C15.2518 26.7757 15.3541 25.6634 15.8107 25.1034C16.4976 24.2595 18.1326 24.3898 19.4471 24.4953C19.6209 24.5093 19.7865 24.5217 19.9508 24.5326V24.5341C18.5299 25.8899 17.0443 27.1542 15.5009 28.3223ZM22.4559 21.9528C22.4546 21.7915 22.4559 21.6131 22.4613 21.4036C22.4707 21.098 22.4883 20.8033 22.5098 20.5225V20.5209C22.5125 20.4899 22.5219 20.4604 22.5381 20.4356L22.9017 19.8322H22.9004C23.0768 19.5374 23.1078 19.1589 22.9839 18.8316L22.8075 18.3725L22.9758 18.2313V18.2328C23.3031 17.9552 23.4256 17.4588 23.2721 17.0259C23.0903 16.5016 23.0903 16.2006 23.1455 16.1014V16.0998C23.194 16.0455 23.2492 16.0021 23.3112 15.9711C23.532 15.8376 23.7341 15.6655 23.9065 15.4576C24.1624 15.1411 24.3523 14.7626 24.4641 14.3499C24.5516 14.035 24.5018 13.6891 24.3307 13.4238L22.0115 9.83259C21.9859 9.79226 21.9751 9.74107 21.9819 9.69298C22.227 8.11066 22.2822 6.49732 22.1489 4.89804C22.0452 3.68648 21.8337 2.4889 21.5159 1.32697C22.9866 1.11755 24.4802 1.4154 25.8043 2.18485C27.2885 2.97292 28.3767 4.50091 28.7579 6.33128C29.7397 12.1051 26.2202 17.7488 22.4559 21.9528Z" fill="#1565C0"/>
</svg>
