<svg width="542" height="50" viewBox="0 0 542 50" fill="none" xmlns="http://www.w3.org/2000/svg">
<path fill-rule="evenodd" clip-rule="evenodd" d="M324.37 22.837C252.24 23.7251 180.073 27.248 108.257 33.5451C74.1132 36.5395 34.4621 36.1652 1.34688 46.3742C-0.303168 46.8879 0.0110773 48.4292 0.0467926 48.5833C0.118223 48.8989 0.418308 49.9484 1.73263 49.9997C1.87549 50.0071 2.88259 49.8603 3.26832 49.8089C13.0472 48.4878 22.7903 46.9467 32.5763 45.699C66.3629 41.3762 100.25 38.1102 134.186 35.2479C179.23 31.4461 224.66 29.4204 269.826 27.8351C294.548 26.9691 319.863 28.1213 344.664 26.3305C353.771 26.2791 362.878 26.2719 371.986 26.3013C410.058 26.4408 448.088 27.9233 486.096 29.9563C498.318 30.6095 507.639 31.314 519.604 31.7911C524.147 31.9746 531.354 32.0994 536.369 32.1801C537.104 32.1948 538.983 32.2093 539.762 32.2166C539.84 32.2313 539.919 32.2313 540.005 32.2313C540.305 32.2313 540.447 32.2093 540.476 32.2093C542.176 31.9524 542.019 30.3011 541.976 30.0516C541.969 30.0002 541.712 28.6057 540.248 28.5543C539.898 28.5397 537.39 28.5251 536.426 28.5104C531.44 28.4297 524.261 28.3049 519.74 28.1288C507.797 27.6517 498.482 26.9472 486.282 26.294C448.216 24.261 410.13 22.7711 372 22.6317C367.343 22.617 362.678 22.6096 358.021 22.617C357.864 22.1986 357.514 21.7289 356.742 21.5234C356.021 21.3326 350.857 21.1638 348.864 20.995C334.113 19.7473 334.549 19.806 318.32 18.7859C293.741 17.2373 289.998 16.8848 264.433 16.2316C217.996 15.0427 171.537 15.1382 125.093 15.2556C102.164 15.3217 77.6132 16.9143 54.334 13.9419C62.0057 13.0171 69.7059 12.3419 77.3918 11.5713C103.635 8.94383 129.9 7.31442 156.251 6.1695C219.46 3.4246 282.769 2.33113 345.956 6.07417C332.506 6.20628 319.063 6.51444 305.612 6.7126C250.861 7.5346 195.581 6.91816 140.944 11.1823C139.965 11.263 139.229 12.1437 139.301 13.1492C139.372 14.162 140.236 14.918 141.215 14.8446C195.781 10.5805 250.982 11.2042 305.662 10.3822C325.977 10.0813 346.285 9.53827 366.6 9.69974C373.571 9.75845 380.543 10.0227 387.515 10.1108C388.893 10.1328 392.444 10.4117 392.951 10.2943C394.072 10.0374 394.315 9.18597 394.386 8.76763C394.422 8.5181 394.536 7.0796 392.822 6.56585C381.122 3.05766 359.528 3.21913 348.157 2.52923C284.19 -1.36059 220.096 -0.274404 156.101 2.49985C129.686 3.65212 103.357 5.28888 77.0418 7.92369C67.8487 8.8411 58.6342 9.63373 49.4768 10.8521C47.9982 11.0502 44.6767 11.3365 43.0695 11.6374C42.398 11.7622 41.9123 11.9382 41.698 12.063C40.8623 12.5474 40.7122 13.2519 40.7122 13.729C40.7051 14.096 40.8551 15.3877 42.6052 15.74C69.2702 21.105 98.2853 18.9987 125.1 18.9253C171.516 18.8079 217.939 18.7123 264.347 19.9013C289.848 20.5545 293.576 20.8996 318.106 22.4482C320.527 22.595 322.577 22.7269 324.37 22.837Z" fill="#F59E0B"/>
</svg>
