<svg width="26" height="27" viewBox="0 0 26 27" fill="none" xmlns="http://www.w3.org/2000/svg">
<path d="M12.6218 0.75C8.86206 0.75 6.42425 3.27374 3.54117 4.19363C2.36888 4.56766 1.78274 4.75468 1.54552 5.01831C1.30831 5.28195 1.23885 5.66719 1.09993 6.43767C-0.386684 14.6825 2.86265 22.305 10.6119 25.2718C11.4445 25.5906 11.8608 25.75 12.6259 25.75C13.3909 25.75 13.8072 25.5906 14.6398 25.2718C22.3885 22.3049 25.6348 14.6825 24.1477 6.43766C24.0087 5.66705 23.9393 5.28174 23.702 5.01811C23.4647 4.75447 22.8786 4.56756 21.7064 4.19373C18.8222 3.27393 16.3816 0.75 12.6218 0.75Z" stroke="#22C55E" stroke-width="1.5" stroke-linecap="round" stroke-linejoin="round"/>
<path d="M8.87402 14.5C8.87402 14.5 10.124 14.5 11.374 17C11.374 17 15.3446 10.75 18.874 9.5" stroke="#22C55E" stroke-width="1.5" stroke-linecap="round" stroke-linejoin="round"/>
</svg>
