<svg width="33" height="33" viewBox="0 0 33 33" fill="none" xmlns="http://www.w3.org/2000/svg">
<path d="M16.25 2.5C12.6033 2.5 9.10591 3.94866 6.52728 6.52728C3.94866 9.10591 2.5 12.6033 2.5 16.25C2.5 19.8967 3.94866 23.3941 6.52728 25.9727C9.10591 28.5513 12.6033 30 16.25 30C19.8967 30 23.3941 28.5513 25.9727 25.9727C28.5513 23.3941 30 19.8967 30 16.25C30 12.6033 28.5513 9.10591 25.9727 6.52728C23.3941 3.94866 19.8967 2.5 16.25 2.5ZM0 16.25C0 7.275 7.275 0 16.25 0C25.225 0 32.5 7.275 32.5 16.25C32.5 25.225 25.225 32.5 16.25 32.5C7.275 32.5 0 25.225 0 16.25ZM16.25 8.75C14.2609 8.75 12.3532 9.54018 10.9467 10.9467C9.54018 12.3532 8.75 14.2609 8.75 16.25C8.75 18.2391 9.54018 20.1468 10.9467 21.5533C12.3532 22.9598 14.2609 23.75 16.25 23.75C18.2391 23.75 20.1468 22.9598 21.5533 21.5533C22.9598 20.1468 23.75 18.2391 23.75 16.25C23.75 14.2609 22.9598 12.3532 21.5533 10.9467C20.1468 9.54018 18.2391 8.75 16.25 8.75ZM6.25 16.25C6.25 13.5978 7.30357 11.0543 9.17893 9.17893C11.0543 7.30357 13.5978 6.25 16.25 6.25C18.9022 6.25 21.4457 7.30357 23.3211 9.17893C25.1964 11.0543 26.25 13.5978 26.25 16.25C26.25 18.9022 25.1964 21.4457 23.3211 23.3211C21.4457 25.1964 18.9022 26.25 16.25 26.25C13.5978 26.25 11.0543 25.1964 9.17893 23.3211C7.30357 21.4457 6.25 18.9022 6.25 16.25ZM12.5 16.25C12.5 15.2554 12.8951 14.3016 13.5983 13.5983C14.3016 12.8951 15.2554 12.5 16.25 12.5C17.2446 12.5 18.1984 12.8951 18.9016 13.5983C19.6049 14.3016 20 15.2554 20 16.25C20 17.2446 19.6049 18.1984 18.9016 18.9016C18.1984 19.6049 17.2446 20 16.25 20C15.2554 20 14.3016 19.6049 13.5983 18.9016C12.8951 18.1984 12.5 17.2446 12.5 16.25Z" fill="#1565C0"/>
</svg>
