<svg width="30" height="30" viewBox="0 0 30 30" fill="none" xmlns="http://www.w3.org/2000/svg">
<path d="M12.0007 7.64014C12.4031 6.61995 13.8469 6.61995 14.2493 7.64014L15.3878 10.527C16.1249 12.3958 17.6042 13.8751 19.473 14.6122L22.3599 15.7507C23.38 16.1531 23.38 17.5969 22.3599 17.9993L19.473 19.1378C17.6042 19.8749 16.1249 21.3542 15.3878 23.223L14.2493 26.1099C13.8469 27.13 12.4031 27.13 12.0007 26.1099L10.8622 23.223C10.1251 21.3542 8.64581 19.8749 6.77699 19.1378L3.89014 17.9993C2.86995 17.5969 2.86995 16.1531 3.89014 15.7507L6.77699 14.6122C8.64581 13.8751 10.1251 12.3958 10.8622 10.527L12.0007 7.64014Z" stroke="#CC34FF" stroke-width="1.5"/>
<path d="M22.7034 3.41193C22.8543 3.02936 23.3957 3.02936 23.5466 3.41193L23.9736 4.4945C24.25 5.19531 24.8047 5.75005 25.5055 6.02644L26.5881 6.4534C26.9706 6.60428 26.9706 7.14572 26.5881 7.2966L25.5055 7.72356C24.8047 7.99995 24.25 8.55469 23.9736 9.2555L23.5466 10.3381C23.3957 10.7206 22.8543 10.7206 22.7034 10.3381L22.2764 9.2555C22 8.55469 21.4453 7.99995 20.7445 7.72356L19.6619 7.2966C19.2794 7.14572 19.2794 6.60428 19.6619 6.4534L20.7445 6.02644C21.4453 5.75005 22 5.19531 22.2764 4.4945L22.7034 3.41193Z" stroke="#CC34FF" stroke-width="1.5"/>
</svg>
