<svg width="41" height="45" viewBox="0 0 41 45" fill="none" xmlns="http://www.w3.org/2000/svg">
<path fill-rule="evenodd" clip-rule="evenodd" d="M13.718 41.918C9.80313 40.8194 5.70435 40.2652 1.72827 39.7575C0.871886 39.651 0.0767901 40.245 0.0156196 41.0818C-0.106721 41.9192 0.505341 42.6851 1.30056 42.7915C5.15429 43.2803 9.13001 43.8033 12.8614 44.8609C13.6566 45.0903 14.5134 44.6181 14.758 43.8057C15.0027 42.994 14.5132 42.148 13.718 41.918Z" fill="#F59E0B"/>
<path fill-rule="evenodd" clip-rule="evenodd" d="M25.5838 26.3443C19.2833 19.9147 12.1875 14.3127 6.00927 7.71057C5.45874 7.09398 4.48001 7.06094 3.86831 7.63656C3.25661 8.21278 3.19567 9.18172 3.80738 9.79832C9.98559 16.4194 17.0814 22.0397 23.3819 28.4883C23.9936 29.0902 24.9721 29.0988 25.5838 28.5067C26.1343 27.9152 26.1955 26.9462 25.5838 26.3443Z" fill="#F59E0B"/>
<path fill-rule="evenodd" clip-rule="evenodd" d="M37.3955 1.61231C37.579 5.29232 37.7621 8.97233 37.9456 12.653C37.9456 13.4959 38.68 14.1467 39.5364 14.1058C40.3928 14.0642 41.0042 13.3466 41.0042 12.5031C40.8207 8.81696 40.6375 5.13144 40.454 1.44592C40.3928 0.602992 39.6587 -0.0435798 38.8023 0.00229807C38.0071 0.0481759 37.3343 0.769989 37.3955 1.61231Z" fill="#F59E0B"/>
</svg>
