<svg width="20" height="20" viewBox="0 0 20 20" fill="none" xmlns="http://www.w3.org/2000/svg">
<path d="M4.38 0H15.62C18.0391 0 20 1.96094 20 4.38V15.62C20 18.0391 18.0391 20 15.62 20H4.38C1.96094 20 0 18.0391 0 15.62V4.38C0 1.96094 1.96094 0 4.38 0Z" fill="url(#paint0_linear_6022_14562)"/>
<path d="M6.40977 14.516L6.41164 14.5167L5.72781 15.701C5.4782 16.1334 4.92539 16.2815 4.49305 16.0319C4.0607 15.7823 3.91258 15.2295 4.16219 14.7971L4.66594 13.9246L4.7143 13.8409C4.80063 13.7168 5.01367 13.5026 5.43984 13.5429C5.43984 13.5429 6.44273 13.6517 6.51531 14.173C6.51531 14.173 6.52516 14.3445 6.40977 14.516ZM16.1084 11.491H13.9761C13.8309 11.4813 13.7675 11.4294 13.7425 11.3992L13.7409 11.3965L11.4584 7.44292L11.4554 7.44487L11.3185 7.24862C11.0941 6.9055 10.7379 7.783 10.7379 7.783C10.3125 8.76081 10.7983 9.87245 10.9676 10.2085L14.138 15.6999C14.3876 16.1321 14.9404 16.2803 15.3728 16.0307C15.8051 15.781 15.9533 15.2282 15.7036 14.7959L14.9109 13.4228C14.8955 13.3895 14.8687 13.2992 15.0313 13.2988H16.1084C16.6077 13.2988 17.0123 12.8941 17.0123 12.3949C17.0123 11.8957 16.6077 11.491 16.1084 11.491ZM11.9667 12.7197C11.9667 12.7197 12.0805 13.2987 11.6402 13.2987H3.75742C3.2582 13.2987 2.85352 12.894 2.85352 12.3948C2.85352 11.8956 3.2582 11.4909 3.75742 11.4909H5.78398C6.11117 11.472 6.18867 11.2831 6.18867 11.2831L6.19055 11.284L8.83586 6.70214L8.83508 6.70198C8.88328 6.61347 8.84313 6.52979 8.83617 6.51659L7.9625 5.00339C7.71289 4.57112 7.86102 4.01823 8.29336 3.7687C8.7257 3.51917 9.27852 3.66714 9.52812 4.09948L9.93328 4.80128L10.3377 4.10073C10.5873 3.66847 11.1402 3.52026 11.5725 3.76995C12.0048 4.01964 12.153 4.57229 11.9034 5.00464L8.22227 11.3804C8.20617 11.4192 8.20125 11.4802 8.32102 11.4909H10.5213L10.5218 11.5124C10.5218 11.5124 11.7935 11.5321 11.9667 12.7197Z" fill="white"/>
<defs>
<linearGradient id="paint0_linear_6022_14562" x1="1000" y1="0" x2="1000" y2="2000" gradientUnits="userSpaceOnUse">
<stop stop-color="#17C9FB"/>
<stop offset="1" stop-color="#1A74E8"/>
</linearGradient>
</defs>
</svg>
