<svg width="177" height="41" viewBox="0 0 177 41" fill="none" xmlns="http://www.w3.org/2000/svg">
<path d="M20.2914 0C30.2103 0 38.4667 7.11705 40.2331 16.5231L36.7034 16.5536C36.5613 15.7239 36.0528 14.4964 34.5253 12.4103C32.9978 10.3241 30.9137 8.71013 28.5117 7.75306C26.1097 6.79601 23.4868 6.53441 20.9431 6.9984C18.3994 7.46242 16.0377 8.63329 14.1284 10.3768C12.5068 11.8576 11.2628 13.7047 10.5003 15.764C9.73781 17.8233 9.47888 20.0351 9.74502 22.2149C10.0112 24.3946 10.7948 26.479 12.0304 28.2943C13.266 30.1096 14.9176 31.6033 16.8478 32.6504C18.778 33.6975 20.9307 34.2677 23.1262 34.3137C25.3216 34.3597 27.4962 33.8801 29.4685 32.9148C31.4408 31.9494 33.1538 30.5262 34.4643 28.7642C35.7748 27.0023 36.4394 25.7094 36.6679 24.8793L40.0648 24.8662C37.9902 33.8696 29.9248 40.5828 20.2914 40.5828C9.08476 40.5828 0 31.498 0 20.2914C0 9.08476 9.08476 0 20.2914 0Z" fill="#1565C0"/>
<path fill-rule="evenodd" clip-rule="evenodd" d="M16.3131 12.7697C18.3756 10.8865 21.1018 9.89977 23.8918 10.0266C26.6819 10.1534 29.3073 11.3834 31.1905 13.4459C33.0737 15.5085 34.0604 18.2348 33.9336 21.0249C33.8067 23.8149 32.5768 26.4404 30.5143 28.3235C28.4517 30.2067 25.7255 31.1932 22.9355 31.0664C20.1454 30.9396 17.52 29.7096 15.6368 27.6471C13.7537 25.5845 12.7669 22.8584 12.8938 20.0683C13.0206 17.2783 14.2505 14.6529 16.3131 12.7697ZM23.8184 11.6451C21.4576 11.5377 19.1508 12.3726 17.4055 13.9661C15.6603 15.5596 14.6195 17.7812 14.5122 20.142C14.4049 22.5028 15.2398 24.8096 16.8333 26.5548C18.4267 28.3 20.6482 29.3408 23.0089 29.4481C25.3698 29.5555 27.6766 28.7204 29.4218 27.1269C31.167 25.5334 32.2078 23.312 32.3151 20.9512C32.4224 18.5904 31.5875 16.2836 29.9941 14.5384C28.4006 12.7932 26.1792 11.7524 23.8184 11.6451Z" fill="#1565C0"/>
<path d="M62.777 10.5047C64.1656 10.5047 65.3018 10.7151 66.1855 11.1359C67.0902 11.5357 67.8897 12.0091 68.584 12.5561C69.0048 12.8717 69.3204 12.9138 69.5308 12.6823C69.7623 12.4299 69.9201 11.8513 70.0042 10.9465H70.7301C70.688 11.7461 70.6565 12.7139 70.6354 13.8501C70.6144 14.9652 70.6039 16.459 70.6039 18.3316H69.878C69.7307 17.4058 69.5834 16.6484 69.4361 16.0593C69.3099 15.4701 69.1311 14.9652 68.8996 14.5444C68.6892 14.1236 68.3947 13.7133 68.0159 13.3135C67.4058 12.5561 66.6589 12.0091 65.7752 11.6724C64.8915 11.3358 63.9552 11.1675 62.9663 11.1675C61.8933 11.1675 60.9465 11.441 60.1259 11.988C59.3054 12.514 58.6111 13.2715 58.043 14.2603C57.4959 15.2492 57.0751 16.4169 56.7806 17.7635C56.486 19.1101 56.3387 20.5829 56.3387 22.1819C56.3387 23.823 56.4965 25.3169 56.8121 26.6634C57.1277 27.9889 57.5801 29.1356 58.1692 30.1035C58.7794 31.0503 59.5053 31.7867 60.3469 32.3127C61.2095 32.8176 62.1668 33.0701 63.2188 33.0701C64.0815 33.0701 64.9757 32.9018 65.9014 32.5651C66.8272 32.2075 67.5636 31.6709 68.1106 30.9556C68.6997 30.3244 69.0995 29.6195 69.3099 28.8411C69.5413 28.0415 69.7307 26.958 69.878 25.5904H70.6039C70.6039 27.5261 70.6144 29.0935 70.6354 30.2928C70.6565 31.4711 70.688 32.4705 70.7301 33.291H70.0042C69.9201 32.3863 69.7728 31.8182 69.5624 31.5868C69.373 31.3553 69.0469 31.3869 68.584 31.6815C67.8055 32.2285 66.9745 32.7124 66.0908 33.1332C65.2281 33.533 64.113 33.7329 62.7454 33.7329C60.6625 33.7329 58.8425 33.2805 57.2855 32.3758C55.7286 31.4711 54.5188 30.1666 53.6561 28.4623C52.7935 26.7581 52.3622 24.7067 52.3622 22.3081C52.3622 19.9517 52.804 17.8897 53.6877 16.1224C54.5924 14.355 55.8233 12.9769 57.3802 11.988C58.9372 10.9991 60.7361 10.5047 62.777 10.5047ZM78.4098 8.54797V30.3559C78.4098 31.2396 78.5781 31.8393 78.9147 32.1549C79.2724 32.4705 79.8615 32.6283 80.6821 32.6283V33.291C80.3244 33.27 79.7669 33.2489 79.0094 33.2279C78.252 33.1858 77.4945 33.1648 76.7371 33.1648C75.9797 33.1648 75.2117 33.1858 74.4332 33.2279C73.6758 33.2489 73.1077 33.27 72.729 33.291V32.6283C73.5495 32.6283 74.1281 32.4705 74.4648 32.1549C74.8225 31.8393 75.0013 31.2396 75.0013 30.3559V12.3352C75.0013 11.3884 74.8435 10.6941 74.5279 10.2522C74.2123 9.78933 73.6127 9.55789 72.729 9.55789V8.89513C73.4023 8.95825 74.0545 8.98981 74.6857 8.98981C75.38 8.98981 76.0428 8.95825 76.674 8.89513C77.3052 8.81097 77.8838 8.69525 78.4098 8.54797ZM85.3513 9.05293C86.0035 9.05293 86.5505 9.26333 86.9924 9.68413C87.4342 10.0839 87.6551 10.5889 87.6551 11.199C87.6551 11.8092 87.4342 12.3247 86.9924 12.7455C86.5505 13.1452 86.0035 13.3451 85.3513 13.3451C84.699 13.3451 84.152 13.1452 83.7101 12.7455C83.2683 12.3247 83.0474 11.8092 83.0474 11.199C83.0474 10.5889 83.2683 10.0839 83.7101 9.68413C84.152 9.26333 84.699 9.05293 85.3513 9.05293ZM87.2449 16.6589V30.3559C87.2449 31.2396 87.4132 31.8393 87.7498 32.1549C88.1075 32.4705 88.6966 32.6283 89.5172 32.6283V33.291C89.1595 33.27 88.6019 33.2489 87.8445 33.2279C87.1081 33.1858 86.3507 33.1648 85.5722 33.1648C84.8358 33.1648 84.0783 33.1858 83.2999 33.2279C82.5214 33.2489 81.9428 33.27 81.5641 33.291V32.6283C82.3846 32.6283 82.9632 32.4705 83.2999 32.1549C83.6575 31.8393 83.8364 31.2396 83.8364 30.3559V20.4461C83.8364 19.4993 83.6786 18.805 83.363 18.3631C83.0474 17.9003 82.4477 17.6688 81.5641 17.6688V17.0061C82.2373 17.0692 82.8896 17.1007 83.5208 17.1007C84.2361 17.1007 84.8989 17.0692 85.5091 17.0061C86.1403 16.9219 86.7189 16.8062 87.2449 16.6589ZM101.378 16.5642C102.219 16.5642 102.903 16.6799 103.429 16.9114C103.976 17.1218 104.428 17.4163 104.786 17.7951C105.165 18.1948 105.428 18.7103 105.575 19.3415C105.743 19.9727 105.828 20.8248 105.828 21.8979V30.3559C105.828 31.2396 105.996 31.8393 106.332 32.1549C106.69 32.4705 107.279 32.6283 108.1 32.6283V33.291C107.742 33.27 107.185 33.2489 106.427 33.2279C105.67 33.1858 104.923 33.1648 104.186 33.1648C103.471 33.1648 102.756 33.1858 102.04 33.2279C101.346 33.2489 100.82 33.27 100.462 33.291V32.6283C101.178 32.6283 101.683 32.4705 101.977 32.1549C102.272 31.8393 102.419 31.2396 102.419 30.3559V21.0142C102.419 20.404 102.366 19.857 102.261 19.3731C102.156 18.8681 101.935 18.4683 101.598 18.1738C101.262 17.8582 100.757 17.7004 100.084 17.7004C99.3051 17.7004 98.6108 17.9213 98.0007 18.3631C97.4115 18.805 96.9381 19.4151 96.5805 20.1936C96.2438 20.9511 96.0755 21.8032 96.0755 22.75V30.3559C96.0755 31.2396 96.2228 31.8393 96.5173 32.1549C96.8329 32.4705 97.3379 32.6283 98.0322 32.6283V33.291C97.6956 33.27 97.1801 33.2489 96.4858 33.2279C95.8125 33.1858 95.1077 33.1648 94.3713 33.1648C93.6559 33.1648 92.909 33.1858 92.1305 33.2279C91.352 33.2489 90.7734 33.27 90.3947 33.291V32.6283C91.2153 32.6283 91.7939 32.4705 92.1305 32.1549C92.4882 31.8393 92.667 31.2396 92.667 30.3559V20.4461C92.667 19.4993 92.5092 18.805 92.1936 18.3631C91.878 17.9003 91.2784 17.6688 90.3947 17.6688V17.0061C91.068 17.0692 91.7202 17.1007 92.3514 17.1007C93.0668 17.1007 93.7295 17.0692 94.3397 17.0061C94.9709 16.9219 95.5495 16.8062 96.0755 16.6589V20.0989C96.6225 18.7945 97.3695 17.8792 98.3163 17.3532C99.2841 16.8272 100.305 16.5642 101.378 16.5642ZM114.65 16.5642C115.491 16.5642 116.217 16.701 116.827 16.9745C117.459 17.227 117.911 17.4584 118.185 17.6688C118.879 18.2159 119.31 17.8582 119.478 16.5958H120.173C120.131 17.1849 120.099 17.9003 120.078 18.7419C120.057 19.5624 120.047 20.6565 120.047 22.0241H119.352C119.226 21.2456 119.005 20.4882 118.689 19.7518C118.395 19.0154 117.953 18.4052 117.364 17.9213C116.796 17.4374 116.049 17.1954 115.123 17.1954C114.429 17.1954 113.85 17.3953 113.387 17.7951C112.925 18.1738 112.693 18.7419 112.693 19.4993C112.693 20.1305 112.882 20.6775 113.261 21.1404C113.64 21.6033 114.124 22.0346 114.713 22.4344C115.323 22.8341 115.975 23.2655 116.67 23.7283C117.448 24.2543 118.142 24.7803 118.753 25.3063C119.384 25.8113 119.878 26.3794 120.236 27.0106C120.615 27.6418 120.804 28.3782 120.804 29.2198C120.804 30.1876 120.541 31.0082 120.015 31.6815C119.51 32.3547 118.837 32.8702 117.995 33.2279C117.154 33.5645 116.228 33.7329 115.218 33.7329C114.713 33.7329 114.24 33.6803 113.798 33.5751C113.356 33.4909 112.946 33.3752 112.567 33.2279C112.335 33.1017 112.104 32.9754 111.873 32.8492C111.662 32.7019 111.452 32.5651 111.241 32.4389C111.031 32.2916 110.842 32.3127 110.673 32.502C110.505 32.6914 110.379 33.028 110.295 33.5119H109.6C109.642 32.8387 109.674 32.0181 109.695 31.0503C109.716 30.0824 109.726 28.799 109.726 27.1999H110.421C110.568 28.3571 110.789 29.3776 111.084 30.2613C111.378 31.1449 111.809 31.8393 112.377 32.3442C112.967 32.8281 113.766 33.0701 114.776 33.0701C115.176 33.0701 115.576 32.9859 115.975 32.8176C116.375 32.6283 116.701 32.3337 116.954 31.9339C117.227 31.5342 117.364 30.9977 117.364 30.3244C117.364 29.3986 117.038 28.6412 116.386 28.0521C115.754 27.4419 114.934 26.8002 113.924 26.1269C113.209 25.6219 112.525 25.1275 111.873 24.6436C111.241 24.1386 110.726 23.5811 110.326 22.9709C109.926 22.3397 109.726 21.5928 109.726 20.7301C109.726 19.7833 109.947 19.0049 110.389 18.3947C110.852 17.7845 111.462 17.3322 112.22 17.0376C112.977 16.722 113.787 16.5642 114.65 16.5642ZM126.205 9.05293C126.858 9.05293 127.405 9.26333 127.847 9.68413C128.288 10.0839 128.509 10.5889 128.509 11.199C128.509 11.8092 128.288 12.3247 127.847 12.7455C127.405 13.1452 126.858 13.3451 126.205 13.3451C125.553 13.3451 125.006 13.1452 124.564 12.7455C124.122 12.3247 123.902 11.8092 123.902 11.199C123.902 10.5889 124.122 10.0839 124.564 9.68413C125.006 9.26333 125.553 9.05293 126.205 9.05293ZM128.099 16.6589V30.3559C128.099 31.2396 128.267 31.8393 128.604 32.1549C128.962 32.4705 129.551 32.6283 130.371 32.6283V33.291C130.014 33.27 129.456 33.2489 128.699 33.2279C127.962 33.1858 127.205 33.1648 126.426 33.1648C125.69 33.1648 124.933 33.1858 124.154 33.2279C123.376 33.2489 122.797 33.27 122.418 33.291V32.6283C123.239 32.6283 123.817 32.4705 124.154 32.1549C124.512 31.8393 124.691 31.2396 124.691 30.3559V20.4461C124.691 19.4993 124.533 18.805 124.217 18.3631C123.902 17.9003 123.302 17.6688 122.418 17.6688V17.0061C123.092 17.0692 123.744 17.1007 124.375 17.1007C125.09 17.1007 125.753 17.0692 126.363 17.0061C126.994 16.9219 127.573 16.8062 128.099 16.6589ZM137.182 39.2243C136.004 39.2243 134.91 39.1086 133.9 38.8771C132.911 38.6457 132.112 38.288 131.501 37.8041C130.912 37.3412 130.618 36.7416 130.618 36.0052C130.618 35.3109 130.912 34.7007 131.501 34.1747C132.09 33.6487 132.922 33.2489 133.995 32.9754L134.216 33.4804C133.774 33.6697 133.427 33.9748 133.174 34.3956C132.943 34.8164 132.827 35.2793 132.827 35.7843C132.827 36.71 133.258 37.4254 134.121 37.9303C134.983 38.4353 136.12 38.6878 137.529 38.6878C138.476 38.6878 139.37 38.5615 140.212 38.3091C141.075 38.0776 141.769 37.6884 142.295 37.1413C142.842 36.5943 143.115 35.8895 143.115 35.0268C143.115 34.3535 142.873 33.7855 142.39 33.3226C141.906 32.8807 140.948 32.6598 139.518 32.6598H137.308C136.572 32.6598 135.888 32.5967 135.257 32.4705C134.626 32.3442 134.11 32.1023 133.711 31.7446C133.332 31.3659 133.142 30.8399 133.142 30.1666C133.142 29.4091 133.458 28.6938 134.089 28.0205C134.72 27.3472 135.783 26.6845 137.277 26.0322L137.656 26.3163C137.045 26.6529 136.498 27.0001 136.014 27.3577C135.552 27.6944 135.32 28.1152 135.32 28.6201C135.32 29.2934 135.804 29.6301 136.772 29.6301H140.528C141.516 29.6301 142.411 29.7668 143.21 30.0403C144.01 30.2928 144.651 30.7031 145.135 31.2712C145.619 31.8393 145.861 32.5862 145.861 33.5119C145.861 34.5008 145.535 35.4266 144.883 36.2892C144.252 37.1729 143.294 37.8777 142.011 38.4037C140.727 38.9508 139.118 39.2243 137.182 39.2243ZM137.372 26.5687C136.298 26.5687 135.32 26.4004 134.436 26.0638C133.553 25.7061 132.858 25.1591 132.353 24.4227C131.849 23.6863 131.596 22.7395 131.596 21.5823C131.596 20.4251 131.849 19.4783 132.353 18.7419C132.858 17.9844 133.553 17.4374 134.436 17.1007C135.32 16.7431 136.298 16.5642 137.372 16.5642C138.487 16.5642 139.476 16.7431 140.338 17.1007C141.201 17.4374 141.885 17.9844 142.39 18.7419C142.895 19.4783 143.147 20.4251 143.147 21.5823C143.147 22.7395 142.895 23.6863 142.39 24.4227C141.885 25.1591 141.201 25.7061 140.338 26.0638C139.476 26.4004 138.487 26.5687 137.372 26.5687ZM137.372 26.0007C138.108 26.0007 138.676 25.6851 139.076 25.0539C139.476 24.4227 139.675 23.2655 139.675 21.5823C139.675 19.8991 139.476 18.7419 139.076 18.1107C138.676 17.4584 138.108 17.1323 137.372 17.1323C136.677 17.1323 136.12 17.4584 135.699 18.1107C135.278 18.7419 135.068 19.8991 135.068 21.5823C135.068 23.2655 135.278 24.4227 135.699 25.0539C136.12 25.6851 136.677 26.0007 137.372 26.0007ZM142.042 19.2153L141.474 18.9943C141.769 18.2579 142.274 17.6162 142.989 17.0692C143.705 16.5221 144.451 16.2486 145.23 16.2486C145.819 16.2486 146.282 16.4169 146.619 16.7536C146.976 17.0692 147.155 17.5215 147.155 18.1107C147.155 18.7629 146.976 19.2258 146.619 19.4993C146.282 19.7728 145.924 19.9096 145.546 19.9096C145.209 19.9096 144.893 19.7939 144.599 19.5624C144.325 19.331 144.167 18.9733 144.125 18.4894C144.083 17.9844 144.241 17.3427 144.599 16.5642L144.946 16.6905C144.104 17.0271 143.484 17.3848 143.084 17.7635C142.705 18.1212 142.358 18.6051 142.042 19.2153ZM152.998 8.57953V20.0674C153.524 18.7629 154.26 17.8582 155.207 17.3532C156.175 16.8272 157.195 16.5642 158.268 16.5642C159.11 16.5642 159.794 16.6799 160.32 16.9114C160.867 17.1218 161.319 17.4163 161.677 17.7951C162.056 18.1948 162.329 18.7103 162.497 19.3415C162.666 19.9727 162.75 20.8248 162.75 21.8979V30.3559C162.75 31.2396 162.918 31.8393 163.255 32.1549C163.613 32.4705 164.202 32.6283 165.022 32.6283V33.291C164.644 33.27 164.075 33.2489 163.318 33.2279C162.561 33.1858 161.824 33.1648 161.109 33.1648C160.372 33.1648 159.647 33.1858 158.931 33.2279C158.237 33.2489 157.721 33.27 157.385 33.291V32.6283C158.1 32.6283 158.605 32.4705 158.9 32.1549C159.194 31.8393 159.341 31.2396 159.341 30.3559V21.0142C159.341 20.404 159.289 19.857 159.184 19.3731C159.078 18.8681 158.847 18.4683 158.489 18.1738C158.153 17.8582 157.648 17.7004 156.974 17.7004C156.217 17.7004 155.533 17.9213 154.923 18.3631C154.334 18.7839 153.861 19.3731 153.503 20.1305C153.166 20.8879 152.998 21.7506 152.998 22.7184V30.3559C152.998 31.2396 153.145 31.8393 153.44 32.1549C153.734 32.4705 154.239 32.6283 154.955 32.6283V33.291C154.597 33.27 154.071 33.2489 153.377 33.2279C152.703 33.1858 152.009 33.1648 151.294 33.1648C150.557 33.1648 149.8 33.1858 149.021 33.2279C148.264 33.2489 147.696 33.27 147.317 33.291V32.6283C148.138 32.6283 148.716 32.4705 149.053 32.1549C149.411 31.8393 149.589 31.2396 149.589 30.3559V12.3667C149.589 11.4199 149.421 10.7256 149.084 10.2838C148.769 9.82089 148.18 9.58945 147.317 9.58945V8.92669C147.99 8.98981 148.643 9.02137 149.274 9.02137C149.968 9.02137 150.631 8.98981 151.262 8.92669C151.893 8.84253 152.472 8.72681 152.998 8.57953ZM171.199 11.7987V17.0376H175.555V17.6688H171.199V30.0719C171.199 30.9345 171.357 31.5447 171.673 31.9024C171.988 32.2601 172.441 32.4389 173.03 32.4389C173.577 32.4389 174.061 32.218 174.482 31.7761C174.923 31.3343 175.302 30.5874 175.618 29.5354L176.217 29.7563C175.965 30.8714 175.513 31.8182 174.86 32.5967C174.229 33.3541 173.293 33.7329 172.052 33.7329C171.336 33.7329 170.737 33.6382 170.253 33.4488C169.769 33.2805 169.348 33.028 168.99 32.6914C168.527 32.2075 168.212 31.6289 168.043 30.9556C167.875 30.2823 167.791 29.3881 167.791 28.273V17.6688H164.887V17.0376H167.791V12.4299C168.443 12.4088 169.053 12.3562 169.621 12.2721C170.189 12.1669 170.715 12.0091 171.199 11.7987Z" fill="#1565C0"/>
</svg>
