<svg width="618" height="508" viewBox="0 0 618 508" fill="none" xmlns="http://www.w3.org/2000/svg">
<path d="M334.489 -120.18C497.996 -120.18 634.096 -2.86005 663.215 152.191L605.03 152.694C602.687 139.019 594.305 118.783 569.126 84.3953C543.946 50.0063 509.591 23.4008 469.996 7.62408C430.401 -8.1523 387.163 -12.4646 345.233 -4.81596C303.302 2.83308 264.37 22.134 232.896 50.8752C206.166 75.2848 185.659 105.733 173.09 139.679C160.521 173.625 156.253 210.086 160.64 246.017C165.027 281.948 177.945 316.307 198.312 346.231C218.68 376.156 245.906 400.779 277.724 418.04C309.542 435.301 345.028 444.699 381.219 445.458C417.409 446.216 453.255 438.31 485.767 422.397C518.28 406.484 546.517 383.024 568.12 353.979C589.723 324.934 600.678 303.621 604.445 289.938L660.441 289.723C626.242 438.137 493.289 548.799 334.489 548.799C149.756 548.799 0 399.043 0 214.309C0 29.5762 149.756 -120.18 334.489 -120.18Z" fill="#E8F0F9" fill-opacity="0.1"/>
<path fill-rule="evenodd" clip-rule="evenodd" d="M268.91 90.3194C302.909 59.2766 347.848 43.0111 393.84 45.1016C439.832 47.1923 483.11 67.4677 514.153 101.467C545.196 135.466 561.462 180.408 559.371 226.401C557.28 272.392 537.005 315.671 503.006 346.714C469.007 377.756 424.067 394.019 378.075 391.928C332.083 389.837 288.805 369.563 257.762 335.563C226.719 301.563 210.454 256.625 212.545 210.633C214.635 164.641 234.91 121.362 268.91 90.3194ZM392.629 71.7808C353.713 70.0117 315.687 83.7747 286.918 110.042C258.149 136.309 240.993 172.93 239.224 211.847C237.455 250.763 251.218 288.789 277.485 317.558C303.751 346.326 340.371 363.483 379.286 365.252C418.203 367.021 456.229 353.255 484.998 326.988C513.766 300.721 530.923 264.103 532.692 225.186C534.461 186.27 520.698 148.244 494.431 119.475C468.164 90.7066 431.545 73.5501 392.629 71.7808Z" fill="#E8F0F9" fill-opacity="0.1"/>
</svg>
