<svg width="20" height="23" viewBox="0 0 20 23" fill="none" xmlns="http://www.w3.org/2000/svg">
<path d="M9.34027 10.54L0.0830078 20.2389C0.186966 20.6073 0.373782 20.947 0.629175 21.2322C0.884569 21.5173 1.20178 21.7403 1.55655 21.8841C1.91133 22.0279 2.29428 22.0886 2.67613 22.0617C3.05798 22.0348 3.42863 21.9209 3.75973 21.7288L14.1759 15.7964L9.34027 10.54Z" fill="#EA4335"/>
<path d="M18.7004 8.89152L14.1961 6.31152L9.12598 10.7607L14.2168 15.7826L18.6868 13.2303C19.0827 13.0229 19.4144 12.7111 19.6459 12.3287C19.8773 11.9463 19.9996 11.5078 19.9996 11.0609C19.9996 10.6139 19.8773 10.1754 19.6459 9.79299C19.4144 9.41057 19.0827 9.09879 18.6868 8.89145L18.7004 8.89152Z" fill="#FBBC04"/>
<path d="M0.0828367 1.83496C0.0269143 2.04183 -0.000939426 2.25528 2.41691e-05 2.46957V19.6045C0.000576363 19.8187 0.0284043 20.032 0.0828367 20.2392L9.65745 10.7887L0.0828367 1.83496Z" fill="#4285F4"/>
<path d="M9.40926 11.037L14.1966 6.3118L3.79426 0.351802C3.40287 0.122599 2.95774 0.00121294 2.50418 4.79143e-06C1.37863 -0.00218271 0.389102 0.744849 0.0830078 1.82805L9.40926 11.037Z" fill="#34A853"/>
</svg>
