<svg width="20" height="20" viewBox="0 0 20 20" fill="none" xmlns="http://www.w3.org/2000/svg">
<path d="M17.7633 5.95108L17.3519 5.23725C17.0409 4.69739 16.8853 4.42746 16.6207 4.31982C16.356 4.21218 16.0567 4.29712 15.4581 4.46699L14.4413 4.7534C14.0591 4.84153 13.6581 4.79154 13.3092 4.61225L13.0284 4.45027C12.7292 4.25861 12.499 3.97603 12.3716 3.64387L12.0933 2.81272C11.9104 2.2627 11.8189 1.98769 11.6011 1.83039C11.3832 1.6731 11.0939 1.6731 10.5153 1.6731H9.58631C9.00768 1.6731 8.71836 1.6731 8.50055 1.83039C8.28274 1.98769 8.19125 2.2627 8.00827 2.81272L7.72997 3.64387C7.60257 3.97603 7.37241 4.25861 7.07317 4.45027L6.79244 4.61225C6.44348 4.79154 6.04252 4.84153 5.66035 4.7534L4.64349 4.46699C4.04488 4.29712 3.74557 4.21218 3.48092 4.31982C3.21628 4.42746 3.06074 4.69739 2.74966 5.23725L2.33834 5.95108C2.04674 6.45712 1.90095 6.71014 1.92925 6.97949C1.95754 7.24884 2.15272 7.4659 2.54308 7.90002L3.40228 8.86061C3.61228 9.12646 3.76137 9.58976 3.76137 10.0063C3.76137 10.4231 3.61233 10.8863 3.4023 11.1522L2.54308 12.1128C2.15273 12.5469 1.95754 12.7639 1.92925 13.0333C1.90095 13.3026 2.04675 13.5557 2.33834 14.0617L2.74965 14.7755C3.06072 15.3154 3.21628 15.5853 3.48092 15.693C3.74557 15.8006 4.04488 15.7157 4.6435 15.5458L5.66031 15.2594C6.04255 15.1712 6.44359 15.2212 6.79259 15.4006L7.07328 15.5626C7.37245 15.7542 7.60257 16.0368 7.72995 16.3689L8.00827 17.2001C8.19125 17.7502 8.28274 18.0252 8.50055 18.1825C8.71836 18.3398 9.00768 18.3398 9.58631 18.3398H10.5153C11.0939 18.3398 11.3832 18.3398 11.6011 18.1825C11.8189 18.0252 11.9104 17.7502 12.0933 17.2001L12.3717 16.3689C12.499 16.0368 12.7292 15.7542 13.0283 15.5626L13.309 15.4006C13.658 15.2212 14.0591 15.1712 14.4413 15.2594L15.4581 15.5458C16.0567 15.7157 16.356 15.8006 16.6207 15.693C16.8853 15.5853 17.0409 15.3154 17.352 14.7755L17.7633 14.0617C18.0549 13.5557 18.2007 13.3026 18.1724 13.0333C18.1441 12.7639 17.9489 12.5469 17.5585 12.1128L16.6993 11.1522C16.4893 10.8863 16.3402 10.4231 16.3402 10.0063C16.3402 9.58976 16.4893 9.12646 16.6993 8.86061L17.5585 7.90002C17.9489 7.4659 18.1441 7.24884 18.1724 6.97949C18.2007 6.71014 18.0549 6.45712 17.7633 5.95108Z" stroke="#767676" stroke-width="1.5" stroke-linecap="round"/>
<path d="M12.9349 9.99992C12.9349 11.6107 11.6291 12.9166 10.0182 12.9166C8.4074 12.9166 7.10156 11.6107 7.10156 9.99992C7.10156 8.38909 8.4074 7.08325 10.0182 7.08325C11.6291 7.08325 12.9349 8.38909 12.9349 9.99992Z" stroke="#767676" stroke-width="1.5"/>
</svg>
