<svg width="20" height="20" viewBox="0 0 20 20" fill="none" xmlns="http://www.w3.org/2000/svg">
<path d="M13.332 11.6667C13.332 12.3571 13.8917 12.9167 14.582 12.9167C15.2724 12.9167 15.832 12.3571 15.832 11.6667C15.832 10.9764 15.2724 10.4167 14.582 10.4167C13.8917 10.4167 13.332 10.9764 13.332 11.6667Z" stroke="#767676" stroke-width="1.5"/>
<path d="M8.33464 5.83333H13.3346C15.6917 5.83333 16.8702 5.83333 17.6024 6.56557C18.3346 7.2978 18.3346 8.47631 18.3346 10.8333V12.5C18.3346 14.857 18.3346 16.0355 17.6024 16.7678C16.8702 17.5 15.6917 17.5 13.3346 17.5H8.33463C5.19194 17.5 3.62059 17.5 2.64428 16.5237C1.66797 15.5474 1.66797 13.976 1.66797 10.8333V9.16667C1.66797 6.02397 1.66797 4.45262 2.64428 3.47631C3.62059 2.5 5.19194 2.5 8.33464 2.5H11.668C12.4429 2.5 12.8304 2.5 13.1483 2.58519C14.0111 2.81635 14.6849 3.49022 14.9161 4.35295C15.0013 4.67087 15.0013 5.05836 15.0013 5.83333" stroke="#767676" stroke-width="1.5" stroke-linecap="round"/>
</svg>
