<svg width="40" height="40" viewBox="0 0 40 40" fill="none" xmlns="http://www.w3.org/2000/svg">
<path d="M31.0007 9.99967C30.9225 7.41059 30.6335 5.86631 29.5635 4.79747C28.0975 3.33301 25.7378 3.33301 21.0187 3.33301H14.3448C9.62567 3.33301 7.26608 3.33301 5.80003 4.79747C4.33398 6.26194 4.33398 8.61896 4.33398 13.333V26.6663C4.33398 31.3803 4.33398 33.7373 5.80003 35.2018C7.26608 36.6663 9.62567 36.6663 14.3448 36.6663H21.0187C25.7378 36.6663 28.0975 36.6663 29.5635 35.2018C30.6335 34.133 30.9225 32.5888 31.0007 29.9997" stroke="#F59E0B" stroke-width="3.5" stroke-linecap="round" stroke-linejoin="round"/>
<path d="M30.4331 16.2632L21.6561 25.0402L20.0029 29.9997L24.9624 28.3465L33.7394 19.5695L35.7013 17.6077C36.1519 17.157 36.3773 16.9317 36.4978 16.6887C36.7269 16.2261 36.7269 15.6831 36.4978 15.2205C36.3773 14.9774 36.1519 14.7521 35.7013 14.3014C35.2504 13.8507 35.0251 13.6254 34.7821 13.5049C34.3196 13.2757 33.7766 13.2757 33.3139 13.5049C33.0709 13.6254 32.8456 13.8507 32.3949 14.3014L30.4331 16.2632ZM33.7394 19.5695L30.4331 16.2632" stroke="#F59E0B" stroke-width="3.5" stroke-linecap="round" stroke-linejoin="round"/>
<path d="M9.33398 31.6667H11.0007L13.084 27.5L15.1673 31.6667H16.834" stroke="#F59E0B" stroke-width="3.5" stroke-linecap="round" stroke-linejoin="round"/>
<path d="M10 10H23.3333" stroke="#F59E0B" stroke-width="3.5" stroke-linecap="round" stroke-linejoin="round"/>
<path d="M10 16.667H20" stroke="#F59E0B" stroke-width="3.5" stroke-linecap="round" stroke-linejoin="round"/>
</svg>
