<svg width="32" height="32" viewBox="0 0 32 32" fill="none" xmlns="http://www.w3.org/2000/svg">
<path d="M14.0864 2.76642C14.6839 2.48109 15.3376 2.33301 15.9998 2.33301C16.6619 2.33301 17.3156 2.48109 17.9131 2.76642C18.4384 3.01842 18.9198 3.42909 19.5931 4.00375L19.6984 4.09175C20.3384 4.63842 20.9504 4.89709 21.8051 4.96509L21.9411 4.97575C22.8237 5.04642 23.4544 5.09575 24.0038 5.29042C24.6281 5.51099 25.1952 5.86841 25.6635 6.33651C26.1318 6.80461 26.4895 7.37153 26.7104 7.99575C26.9038 8.54509 26.9531 9.17575 27.0238 10.0584L27.0344 10.1944C27.1024 11.0491 27.3624 11.6611 27.9078 12.3011L27.9958 12.4051C28.5704 13.0798 28.9824 13.5611 29.2331 14.0864C29.5184 14.6839 29.6665 15.3376 29.6665 15.9998C29.6665 16.6619 29.5184 17.3156 29.2331 17.9131C28.9811 18.4384 28.5704 18.9198 27.9958 19.5931L27.9078 19.6984C27.3504 20.3518 27.1011 20.9664 27.0344 21.8051L27.0238 21.9411C26.9531 22.8237 26.9038 23.4544 26.7091 24.0038C26.4885 24.6281 26.1311 25.1952 25.663 25.6635C25.1949 26.1318 24.628 26.4895 24.0038 26.7104C23.4544 26.9038 22.8237 26.9531 21.9411 27.0238L21.8051 27.0344C20.9504 27.1024 20.3384 27.3624 19.6984 27.9078L19.5931 27.9958C18.9198 28.5704 18.4384 28.9824 17.9131 29.2331C17.3156 29.5184 16.6619 29.6665 15.9998 29.6665C15.3376 29.6665 14.6839 29.5184 14.0864 29.2331C13.5611 28.9811 13.0798 28.5704 12.4064 27.9958L12.3011 27.9078C11.7198 27.3837 10.976 27.0754 10.1944 27.0344L10.0584 27.0238C9.17575 26.9531 8.54509 26.9038 7.99575 26.7091C7.37142 26.4885 6.80432 26.1311 6.33599 25.663C5.86767 25.1949 5.50996 24.628 5.28909 24.0038C5.09575 23.4544 5.04642 22.8237 4.97575 21.9411L4.96509 21.8051C4.92411 21.0235 4.61578 20.2797 4.09175 19.6984L4.00375 19.5931C3.42909 18.9198 3.01709 18.4384 2.76642 17.9131C2.48109 17.3156 2.33301 16.6619 2.33301 15.9998C2.33301 15.3376 2.48109 14.6839 2.76642 14.0864C3.01842 13.5611 3.42909 13.0798 4.00375 12.4064L4.09175 12.3011C4.61578 11.7198 4.92411 10.976 4.96509 10.1944L4.97575 10.0584C5.04642 9.17575 5.09575 8.54509 5.29042 7.99575C5.51099 7.37142 5.86841 6.80432 6.33651 6.33599C6.80461 5.86767 7.37153 5.50996 7.99575 5.28909C8.54509 5.09575 9.17575 5.04642 10.0584 4.97575L10.1944 4.96509C10.976 4.92411 11.7198 4.61578 12.3011 4.09175L12.4051 4.00375C13.0798 3.42909 13.5611 3.01709 14.0864 2.76642ZM13.6664 13.7824C13.6664 13.0104 13.9424 12.5078 14.2971 12.1891C14.6691 11.8544 15.1904 11.6664 15.7438 11.6664C16.2971 11.6664 16.8184 11.8531 17.1904 12.1891C17.5438 12.5078 17.8198 13.0104 17.8198 13.7824C17.8198 14.9318 17.0678 16.1438 15.8331 17.3878C14.9104 18.3184 13.8544 19.1384 12.9064 19.8731C12.6042 20.1077 12.3153 20.3344 12.0398 20.5531C11.8782 20.6827 11.7608 20.8594 11.7039 21.0586C11.6471 21.2578 11.6535 21.4698 11.7223 21.6652C11.7911 21.8606 11.9189 22.0298 12.088 22.1495C12.2571 22.2691 12.4592 22.3333 12.6664 22.3331H19.3331C19.5983 22.3331 19.8527 22.2277 20.0402 22.0402C20.2277 21.8527 20.3331 21.5983 20.3331 21.3331C20.3331 21.0679 20.2277 20.8135 20.0402 20.626C19.8527 20.4384 19.5983 20.3331 19.3331 20.3331H15.5464C16.1238 19.8571 16.7144 19.3398 17.2531 18.7958C18.5624 17.4758 19.8197 15.7678 19.8197 13.7824C19.8197 12.4758 19.3264 11.4224 18.5278 10.7024C17.7451 9.99842 16.7291 9.66642 15.7438 9.66642C14.7584 9.66642 13.7411 9.99842 12.9584 10.7024C12.1584 11.4224 11.6664 12.4758 11.6664 13.7824C11.6664 14.0476 11.7718 14.302 11.9593 14.4895C12.1468 14.6771 12.4012 14.7824 12.6664 14.7824C12.9316 14.7824 13.186 14.6771 13.3735 14.4895C13.5611 14.302 13.6664 14.0476 13.6664 13.7824Z" fill="#F59E0B"/>
</svg>
