<svg width="32" height="32" viewBox="0 0 32 32" fill="none" xmlns="http://www.w3.org/2000/svg">
<path d="M14.0864 2.76642C14.6839 2.48109 15.3376 2.33301 15.9998 2.33301C16.6619 2.33301 17.3156 2.48109 17.9131 2.76642C18.4384 3.01842 18.9198 3.42909 19.5931 4.00375L19.6984 4.09175C20.3384 4.63842 20.9504 4.89709 21.8051 4.96509L21.9411 4.97575C22.8237 5.04642 23.4544 5.09575 24.0038 5.29042C24.6281 5.51099 25.1952 5.86841 25.6635 6.33651C26.1318 6.80461 26.4895 7.37153 26.7104 7.99575C26.9038 8.54509 26.9531 9.17575 27.0238 10.0584L27.0344 10.1944C27.1024 11.0491 27.3624 11.6611 27.9078 12.3011L27.9958 12.4051C28.5704 13.0798 28.9824 13.5611 29.2331 14.0864C29.5184 14.6839 29.6665 15.3376 29.6665 15.9998C29.6665 16.6619 29.5184 17.3156 29.2331 17.9131C28.9811 18.4384 28.5704 18.9198 27.9958 19.5931L27.9078 19.6984C27.3504 20.3518 27.1011 20.9664 27.0344 21.8051L27.0238 21.9411C26.9531 22.8237 26.9038 23.4544 26.7091 24.0038C26.4885 24.6281 26.1311 25.1952 25.663 25.6635C25.1949 26.1318 24.628 26.4895 24.0038 26.7104C23.4544 26.9038 22.8237 26.9531 21.9411 27.0238L21.8051 27.0344C20.9504 27.1024 20.3384 27.3624 19.6984 27.9078L19.5931 27.9958C18.9198 28.5704 18.4384 28.9824 17.9131 29.2331C17.3156 29.5184 16.6619 29.6665 15.9998 29.6665C15.3376 29.6665 14.6839 29.5184 14.0864 29.2331C13.5611 28.9811 13.0798 28.5704 12.4064 27.9958L12.3011 27.9078C11.7198 27.3837 10.976 27.0754 10.1944 27.0344L10.0584 27.0238C9.17575 26.9531 8.54509 26.9038 7.99575 26.7091C7.37142 26.4885 6.80432 26.1311 6.33599 25.663C5.86767 25.1949 5.50996 24.628 5.28909 24.0038C5.09575 23.4544 5.04642 22.8237 4.97575 21.9411L4.96509 21.8051C4.92411 21.0235 4.61578 20.2797 4.09175 19.6984L4.00375 19.5931C3.42909 18.9198 3.01709 18.4384 2.76642 17.9131C2.48109 17.3156 2.33301 16.6619 2.33301 15.9998C2.33301 15.3376 2.48109 14.6839 2.76642 14.0864C3.01842 13.5611 3.42909 13.0798 4.00375 12.4064L4.09175 12.3011C4.61578 11.7198 4.92411 10.976 4.96509 10.1944L4.97575 10.0584C5.04642 9.17575 5.09575 8.54509 5.29042 7.99575C5.51099 7.37142 5.86841 6.80432 6.33651 6.33599C6.80461 5.86767 7.37153 5.50996 7.99575 5.28909C8.54509 5.09575 9.17575 5.04642 10.0584 4.97575L10.1944 4.96509C10.976 4.92411 11.7198 4.61578 12.3011 4.09175L12.4051 4.00375C13.0798 3.42909 13.5611 3.01709 14.0864 2.76642ZM20.3331 13.3264C20.3331 12.0784 19.7291 11.1238 18.8704 10.5158C18.0411 9.92775 16.9931 9.66642 15.9998 9.66642C15.0064 9.66642 13.9584 9.92775 13.1291 10.5158C12.2718 11.1238 11.6664 12.0784 11.6664 13.3251C11.6664 13.5903 11.7718 13.8447 11.9593 14.0322C12.1468 14.2197 12.4012 14.3251 12.6664 14.3251C12.9316 14.3251 13.186 14.2197 13.3735 14.0322C13.5611 13.8447 13.6664 13.5903 13.6664 13.3251C13.6664 12.7998 13.8958 12.4251 14.2864 12.1464C14.7078 11.8478 15.3264 11.6664 15.9998 11.6664C16.6731 11.6664 17.2918 11.8478 17.7131 12.1464C18.1024 12.4224 18.3304 12.7944 18.3331 13.3158L18.3304 13.3518C18.3264 13.3918 18.3198 13.4584 18.3024 13.5398C18.2588 13.7495 18.1794 13.9502 18.0678 14.1331C17.8464 14.4891 17.3451 14.9998 15.9998 14.9998C15.7345 14.9998 15.4802 15.1051 15.2926 15.2926C15.1051 15.4802 14.9998 15.7345 14.9998 15.9998C14.9998 16.265 15.1051 16.5193 15.2926 16.7069C15.4802 16.8944 15.7345 16.9998 15.9998 16.9998C17.3464 16.9998 17.8464 17.5104 18.0678 17.8664C18.2186 18.1145 18.3094 18.3944 18.3331 18.6838C18.3304 19.2038 18.1024 19.5771 17.7131 19.8531C17.2918 20.1518 16.6731 20.3331 15.9998 20.3331C15.3264 20.3331 14.7078 20.1518 14.2864 19.8531C13.8958 19.5744 13.6664 19.1998 13.6664 18.6744C13.6664 18.4092 13.5611 18.1548 13.3735 17.9673C13.186 17.7798 12.9316 17.6744 12.6664 17.6744C12.4012 17.6744 12.1468 17.7798 11.9593 17.9673C11.7718 18.1548 11.6664 18.4092 11.6664 18.6744C11.6664 19.9211 12.2718 20.8744 13.1291 21.4838C13.9584 22.0718 15.0064 22.3331 15.9998 22.3331C16.9931 22.3331 18.0411 22.0718 18.8704 21.4838C19.7278 20.8758 20.3331 19.9211 20.3331 18.6744V18.6718C20.306 18.0121 20.1104 17.3704 19.7651 16.8078C19.5765 16.5058 19.3442 16.2335 19.0758 15.9998C19.3571 15.7544 19.5851 15.4798 19.7651 15.1918C20.1104 14.6291 20.306 13.9874 20.3331 13.3278V13.3264Z" fill="#22C55E"/>
</svg>
