<svg width="32" height="32" viewBox="0 0 32 32" fill="none" xmlns="http://www.w3.org/2000/svg">
<path d="M14.0864 2.76642C14.6839 2.48109 15.3376 2.33301 15.9998 2.33301C16.6619 2.33301 17.3156 2.48109 17.9131 2.76642C18.4384 3.01842 18.9198 3.42909 19.5931 4.00375L19.6984 4.09175C20.3384 4.63842 20.9504 4.89709 21.8051 4.96509L21.9411 4.97575C22.8237 5.04642 23.4544 5.09575 24.0038 5.29042C24.6281 5.51099 25.1952 5.86841 25.6635 6.33651C26.1318 6.80461 26.4895 7.37153 26.7104 7.99575C26.9038 8.54509 26.9531 9.17575 27.0238 10.0584L27.0344 10.1944C27.1024 11.0491 27.3624 11.6611 27.9078 12.3011L27.9958 12.4051C28.5704 13.0798 28.9824 13.5611 29.2331 14.0864C29.5184 14.6839 29.6665 15.3376 29.6665 15.9998C29.6665 16.6619 29.5184 17.3156 29.2331 17.9131C28.9811 18.4384 28.5704 18.9198 27.9958 19.5931L27.9078 19.6984C27.3504 20.3518 27.1011 20.9664 27.0344 21.8051L27.0238 21.9411C26.9531 22.8237 26.9038 23.4544 26.7091 24.0038C26.4885 24.6281 26.1311 25.1952 25.663 25.6635C25.1949 26.1318 24.628 26.4895 24.0038 26.7104C23.4544 26.9038 22.8237 26.9531 21.9411 27.0238L21.8051 27.0344C20.9504 27.1024 20.3384 27.3624 19.6984 27.9078L19.5931 27.9958C18.9198 28.5704 18.4384 28.9824 17.9131 29.2331C17.3156 29.5184 16.6619 29.6665 15.9998 29.6665C15.3376 29.6665 14.6839 29.5184 14.0864 29.2331C13.5611 28.9811 13.0798 28.5704 12.4064 27.9958L12.3011 27.9078C11.7198 27.3837 10.976 27.0754 10.1944 27.0344L10.0584 27.0238C9.17575 26.9531 8.54509 26.9038 7.99575 26.7091C7.37142 26.4885 6.80432 26.1311 6.33599 25.663C5.86767 25.1949 5.50996 24.628 5.28909 24.0038C5.09575 23.4544 5.04642 22.8237 4.97575 21.9411L4.96509 21.8051C4.92411 21.0235 4.61578 20.2797 4.09175 19.6984L4.00375 19.5931C3.42909 18.9198 3.01709 18.4384 2.76642 17.9131C2.48109 17.3156 2.33301 16.6619 2.33301 15.9998C2.33301 15.3376 2.48109 14.6839 2.76642 14.0864C3.01842 13.5611 3.42909 13.0798 4.00375 12.4064L4.09175 12.3011C4.61578 11.7198 4.92411 10.976 4.96509 10.1944L4.97575 10.0584C5.04642 9.17575 5.09575 8.54509 5.29042 7.99575C5.51099 7.37142 5.86841 6.80432 6.33651 6.33599C6.80461 5.86767 7.37153 5.50996 7.99575 5.28909C8.54509 5.09575 9.17575 5.04642 10.0584 4.97575L10.1944 4.96509C10.976 4.92411 11.7198 4.61578 12.3011 4.09175L12.4051 4.00375C13.0798 3.42909 13.5611 3.01709 14.0864 2.76642ZM17.9998 10.6664C17.9998 10.4819 17.9489 10.301 17.8525 10.1437C17.7562 9.98637 17.6182 9.85876 17.4538 9.77499C17.2895 9.69122 17.1051 9.65455 16.9212 9.66903C16.7373 9.68352 16.561 9.74861 16.4118 9.85709L12.7451 12.5238C12.5304 12.6797 12.3865 12.9145 12.345 13.1766C12.3035 13.4386 12.3678 13.7064 12.5238 13.9211C12.6797 14.1357 12.9145 14.2796 13.1766 14.3211C13.4386 14.3627 13.7064 14.2984 13.9211 14.1424L16.0011 12.6304V21.3331C16.0011 21.5983 16.1064 21.8527 16.294 22.0402C16.4815 22.2277 16.7359 22.3331 17.0011 22.3331C17.2663 22.3331 17.5207 22.2277 17.7082 22.0402C17.8957 21.8527 18.0011 21.5983 18.0011 21.3331L17.9998 10.6664Z" fill="#1565C0"/>
</svg>
