<svg width="32" height="32" viewBox="0 0 32 32" fill="none" xmlns="http://www.w3.org/2000/svg">
<path d="M14.0864 2.76642C14.6839 2.48109 15.3376 2.33301 15.9998 2.33301C16.6619 2.33301 17.3156 2.48109 17.9131 2.76642C18.4384 3.01842 18.9198 3.42909 19.5931 4.00375L19.6984 4.09175C20.3384 4.63842 20.9504 4.89709 21.8051 4.96509L21.9411 4.97575C22.8237 5.04642 23.4544 5.09575 24.0038 5.29042C24.6281 5.51099 25.1952 5.86841 25.6635 6.33651C26.1318 6.80461 26.4895 7.37153 26.7104 7.99575C26.9038 8.54509 26.9531 9.17575 27.0238 10.0584L27.0344 10.1944C27.1024 11.0491 27.3624 11.6611 27.9078 12.3011L27.9958 12.4051C28.5704 13.0798 28.9824 13.5611 29.2331 14.0864C29.5184 14.6839 29.6665 15.3376 29.6665 15.9998C29.6665 16.6619 29.5184 17.3156 29.2331 17.9131C28.9811 18.4384 28.5704 18.9198 27.9958 19.5931L27.9078 19.6984C27.3504 20.3518 27.1011 20.9664 27.0344 21.8051L27.0238 21.9411C26.9531 22.8237 26.9038 23.4544 26.7091 24.0038C26.4885 24.6281 26.1311 25.1952 25.663 25.6635C25.1949 26.1318 24.628 26.4895 24.0038 26.7104C23.4544 26.9038 22.8237 26.9531 21.9411 27.0238L21.8051 27.0344C20.9504 27.1024 20.3384 27.3624 19.6984 27.9078L19.5931 27.9958C18.9198 28.5704 18.4384 28.9824 17.9131 29.2331C17.3156 29.5184 16.6619 29.6665 15.9998 29.6665C15.3376 29.6665 14.6839 29.5184 14.0864 29.2331C13.5611 28.9811 13.0798 28.5704 12.4064 27.9958L12.3011 27.9078C11.7198 27.3837 10.976 27.0754 10.1944 27.0344L10.0584 27.0238C9.17575 26.9531 8.54509 26.9038 7.99575 26.7091C7.37142 26.4885 6.80432 26.1311 6.33599 25.663C5.86767 25.1949 5.50996 24.628 5.28909 24.0038C5.09575 23.4544 5.04642 22.8237 4.97575 21.9411L4.96509 21.8051C4.92411 21.0235 4.61578 20.2797 4.09175 19.6984L4.00375 19.5931C3.42909 18.9198 3.01709 18.4384 2.76642 17.9131C2.48109 17.3156 2.33301 16.6619 2.33301 15.9998C2.33301 15.3376 2.48109 14.6839 2.76642 14.0864C3.01842 13.5611 3.42909 13.0798 4.00375 12.4064L4.09175 12.3011C4.61578 11.7198 4.92411 10.976 4.96509 10.1944L4.97575 10.0584C5.04642 9.17575 5.09575 8.54509 5.29042 7.99575C5.51099 7.37142 5.86841 6.80432 6.33651 6.33599C6.80461 5.86767 7.37153 5.50996 7.99575 5.28909C8.54509 5.09575 9.17575 5.04642 10.0584 4.97575L10.1944 4.96509C10.976 4.92411 11.7198 4.61578 12.3011 4.09175L12.4051 4.00375C13.0798 3.42909 13.5611 3.01709 14.0864 2.76642ZM17.7411 10.9344C17.7782 10.8073 17.7897 10.6741 17.775 10.5426C17.7602 10.411 17.7195 10.2836 17.6551 10.1679C17.5907 10.0522 17.504 9.95045 17.4 9.86852C17.296 9.78659 17.1768 9.72612 17.0492 9.69063C16.9217 9.65515 16.7883 9.64535 16.6569 9.6618C16.5256 9.67825 16.3988 9.72062 16.2839 9.78647C16.169 9.85231 16.0684 9.94031 15.9878 10.0454C15.9072 10.1504 15.8483 10.2704 15.8144 10.3984C15.3038 12.2358 14.2678 13.9584 13.3304 15.2438C12.8415 15.9139 12.314 16.555 11.7504 17.1638L11.6544 17.2638L11.6304 17.2878L11.6251 17.2931C11.4853 17.433 11.3902 17.6112 11.3517 17.8052C11.3133 17.9992 11.3332 18.2003 11.409 18.3829C11.4847 18.5656 11.613 18.7217 11.7775 18.8315C11.942 18.9413 12.1353 18.9998 12.3331 18.9998H16.3331V21.3331C16.3331 21.5983 16.4384 21.8527 16.626 22.0402C16.8135 22.2277 17.0679 22.3331 17.3331 22.3331C17.5983 22.3331 17.8527 22.2277 18.0402 22.0402C18.2277 21.8527 18.3331 21.5983 18.3331 21.3331V18.9998H18.9998C19.265 18.9998 19.5193 18.8944 19.7069 18.7069C19.8944 18.5193 19.9998 18.265 19.9998 17.9998C19.9998 17.7345 19.8944 17.4802 19.7069 17.2926C19.5193 17.1051 19.265 16.9998 18.9998 16.9998H18.3331V15.9998C18.3331 15.7345 18.2277 15.4802 18.0402 15.2926C17.8527 15.1051 17.5983 14.9998 17.3331 14.9998C17.0679 14.9998 16.8135 15.1051 16.626 15.2926C16.4384 15.4802 16.3331 15.7345 16.3331 15.9998V16.9998H14.5118C14.6531 16.8193 14.798 16.6269 14.9464 16.4224C15.9531 15.0424 17.1398 13.0971 17.7411 10.9344Z" fill="#FEF0DA"/>
</svg>
