<svg width="24" height="24" viewBox="0 0 24 24" fill="none" xmlns="http://www.w3.org/2000/svg">
<path fill-rule="evenodd" clip-rule="evenodd" d="M4.823 1.0955C6.263 0.9275 8.5905 0.75 12 0.75C12.9925 0.75 13.8935 0.765 14.7075 0.7905C14.7752 0.792606 14.8423 0.803875 14.907 0.824C15.48 1.0025 17.0205 1.6405 19.176 3.7425C21.207 5.723 21.908 7.1745 22.1375 7.81C22.1635 7.88333 22.1782 7.95883 22.1815 8.0365C22.2235 9.167 22.25 10.4815 22.25 12C22.25 16.055 22.0615 18.6535 21.887 20.192C21.722 21.6415 20.621 22.736 19.177 22.9045C17.737 23.0725 15.409 23.25 12 23.25C8.591 23.25 6.2625 23.0725 4.823 22.9045C3.379 22.736 2.278 21.6415 2.113 20.192C1.938 18.6535 1.75 16.055 1.75 12C1.75 7.945 1.9385 5.3465 2.113 3.808C2.278 2.3585 3.379 1.264 4.823 1.0955ZM6.5 19.875C6.26794 19.875 6.04538 19.7828 5.88128 19.6187C5.71719 19.4546 5.625 19.2321 5.625 19C5.625 18.7679 5.71719 18.5454 5.88128 18.3813C6.04538 18.2172 6.26794 18.125 6.5 18.125H17.5C17.7321 18.125 17.9546 18.2172 18.1187 18.3813C18.2828 18.5454 18.375 18.7679 18.375 19C18.375 19.2321 18.2828 19.4546 18.1187 19.6187C17.9546 19.7828 17.7321 19.875 17.5 19.875H6.5ZM5.625 15.5C5.625 15.017 6.017 14.625 6.5 14.625H17.5C17.7321 14.625 17.9546 14.7172 18.1187 14.8813C18.2828 15.0454 18.375 15.2679 18.375 15.5C18.375 15.7321 18.2828 15.9546 18.1187 16.1187C17.9546 16.2828 17.7321 16.375 17.5 16.375H6.5C6.26794 16.375 6.04538 16.2828 5.88128 16.1187C5.71719 15.9546 5.625 15.7321 5.625 15.5ZM13.7235 5.602C14.6658 5.42585 15.6244 5.35209 16.5825 5.382C16.8545 5.39051 17.113 5.50232 17.3055 5.69469C17.4979 5.88706 17.6099 6.14552 17.6185 6.4175C17.6479 7.37565 17.5739 8.33418 17.398 9.2765C17.225 10.1895 16.135 10.428 15.5395 9.833L14.97 9.263L14.852 9.3665C14.6654 9.53069 14.4822 9.69872 14.3025 9.8705C13.8535 10.3005 13.289 10.882 12.8015 11.5105C12.4345 11.9835 11.8675 12.1215 11.4055 12.0505C10.94 11.978 10.424 11.6655 10.2405 11.0635C10.0575 10.4665 9.8255 9.775 9.5825 9.2115C9.0555 9.609 8.223 10.399 7.2325 11.913C7.10546 12.1073 6.90645 12.2431 6.67925 12.2907C6.45205 12.3382 6.21527 12.2935 6.021 12.1665C5.82673 12.0395 5.69088 11.8405 5.64334 11.6133C5.5958 11.3861 5.64046 11.1493 5.7675 10.955C7.112 8.901 8.2725 7.939 8.99 7.498C9.7445 7.035 10.64 7.375 10.993 8.091C11.277 8.667 11.5395 9.389 11.7485 10.0295C12.1714 9.53159 12.6203 9.05642 13.0935 8.606C13.3365 8.373 13.5465 8.184 13.696 8.0525L13.7295 8.0225L13.1675 7.4605C12.572 6.8655 12.8105 5.7755 13.7235 5.602Z" fill="#22C55E"/>
</svg>
