<svg width="39" height="43" viewBox="0 0 39 43" fill="none" xmlns="http://www.w3.org/2000/svg">
<g filter="url(#filter0_d_5213_2466)">
<path fill-rule="evenodd" clip-rule="evenodd" d="M9.3073 2.49142C9.30622 2.49095 9.3051 2.4906 9.30395 2.49036C9.30204 2.48996 9.30021 2.48924 9.29853 2.48825C8.7349 2.15537 8.08944 1.98661 7.43497 2.00106C6.77952 2.01552 6.1412 2.21316 5.59225 2.57161C5.04331 2.93005 4.60565 3.435 4.32881 4.02929C4.05196 4.62358 3.94699 5.2835 4.02577 5.93436L4.02662 5.94177L4.02833 5.95658L4.03516 6.01581L4.06443 6.24354L4.17174 7.10906L4.5605 10.2134L7.31088 32.3327L7.42551 33.2551L7.45589 33.512C7.46156 33.5612 7.4615 33.6109 7.45804 33.6603C7.42818 34.0871 7.5156 34.5144 7.71152 34.8958C7.91881 35.2993 8.23867 35.634 8.63233 35.8594C9.026 36.0848 9.47658 36.1912 9.92948 36.1657C10.3824 36.1402 10.8182 35.9839 11.1841 35.7157C11.4007 35.5791 11.5936 35.4081 11.7552 35.2094C11.9016 35.0282 12.0257 34.8158 12.1441 34.6191L12.1483 34.6104L15.8336 28.4716L18.2416 24.4587L19.0299 23.1478C19.0343 23.1411 19.0416 23.1369 19.0496 23.1363L19.054 23.136L20.5829 22.9319L25.2544 22.3062C27.6347 21.9923 30.0136 21.6672 32.3909 21.3309L32.5057 21.3116C32.7803 21.2657 33.2711 21.1881 33.7121 20.9001C33.9698 20.7319 34.1919 20.5146 34.3656 20.2605C34.5393 20.0065 34.6612 19.7207 34.7245 19.4195C34.7877 19.1183 34.791 18.8076 34.7341 18.5051C34.6772 18.2026 34.5613 17.9144 34.393 17.6567L34.3748 17.6288C34.2762 17.4629 34.1623 17.3067 34.0344 17.1623C33.8099 16.9294 33.5472 16.7368 33.2576 16.5927C33.2564 16.5921 33.2551 16.5917 33.2538 16.5914C33.252 16.591 33.2504 16.5904 33.2488 16.5895L33.1762 16.5462L32.944 16.4132L32.1243 15.9352L29.3412 14.3008C23.8855 11.0909 18.4321 7.87707 12.981 4.65928L10.3101 3.08696L9.56543 2.6416L9.36494 2.52966L9.32181 2.49906C9.31843 2.49666 9.31481 2.49463 9.31099 2.493L9.3073 2.49142Z" fill="#1565C0"/>
<path d="M20.4836 22.1881L18.9548 22.393C18.7319 22.421 18.5311 22.5437 18.4057 22.7317L18.3956 22.7466L18.3874 22.7618L17.5985 24.072L17.5983 24.073L15.1902 28.0857L11.5056 34.2242L11.4887 34.2526L11.4838 34.2616C11.3643 34.4602 11.2744 34.6111 11.1736 34.7363C11.0634 34.8717 10.9315 34.9884 10.7838 35.0815L10.762 35.0949L10.7408 35.1104C10.4919 35.2928 10.1952 35.3998 9.8871 35.4171C9.57911 35.4344 9.2727 35.3613 9.005 35.208C8.73731 35.0547 8.51922 34.8269 8.37825 34.5526C8.24525 34.2934 8.18603 34.0031 8.20622 33.7132C8.21202 33.6303 8.21298 33.5319 8.20073 33.4256L8.20113 33.4237L8.17026 33.1668L8.17011 33.1628L8.05537 32.2406L5.30523 10.1206L5.30427 10.1204L4.91637 7.01547L4.80836 6.1516L4.8082 6.14758L4.77916 5.91996L4.77173 5.85553L4.77122 5.84844L4.77011 5.84422L4.75356 5.65215C4.73082 5.20348 4.81836 4.75466 5.00888 4.34568C5.22661 3.87844 5.57036 3.48092 6.00198 3.19909C6.4336 2.91726 6.93579 2.7624 7.45115 2.75095C7.96586 2.73959 8.47421 2.87184 8.91748 3.13364C8.91978 3.135 8.9224 3.13582 8.92472 3.13715L8.93081 3.14143L8.96392 3.16434L8.99954 3.18479L9.179 3.28533L9.17995 3.28553L9.92478 3.73028L9.92915 3.7332L12.6005 5.30586L12.6007 5.3049C18.0519 8.52275 23.505 11.7373 28.9608 14.9472L28.9618 14.9474L31.7448 16.5824L31.7467 16.5828L32.5663 17.0612L32.5706 17.0642L32.8032 17.1968L32.8653 17.2338C32.8902 17.2486 32.9167 17.2602 32.9431 17.2721C32.9368 17.2692 32.9301 17.2671 32.9238 17.264C33.1312 17.3672 33.319 17.5051 33.4811 17.6704C33.5741 17.7766 33.6576 17.8906 33.7297 18.012L33.7378 18.0257L33.7471 18.0386L33.7652 18.0663L33.765 18.0673C33.8794 18.2424 33.9586 18.4384 33.9972 18.6439C34.0358 18.8494 34.0334 19.0605 33.9905 19.2652C33.9475 19.4699 33.8647 19.6649 33.7466 19.8376C33.6581 19.967 33.551 20.0823 33.4292 20.1801L33.3021 20.2722C33.0823 20.4157 32.8349 20.4858 32.605 20.5319L32.382 20.5719L32.2857 20.5886C29.9108 20.9246 27.5341 21.249 25.1562 21.5625L25.155 21.5633L20.4836 22.1881ZM33.0996 17.3249C33.0654 17.3177 33.0322 17.3069 32.9992 17.2948C33.0321 17.3066 33.0653 17.3177 33.0996 17.3249ZM8.99068 3.16996C8.97511 3.16254 8.9597 3.15491 8.94474 3.14635C8.95995 3.15454 8.97495 3.16281 8.99068 3.16996Z" stroke="#FFFFFE" stroke-width="1.5"/>
</g>
<defs>
<filter id="filter0_d_5213_2466" x="0" y="0" width="38.7744" height="42.1689" filterUnits="userSpaceOnUse" color-interpolation-filters="sRGB">
<feFlood flood-opacity="0" result="BackgroundImageFix"/>
<feColorMatrix in="SourceAlpha" type="matrix" values="0 0 0 0 0 0 0 0 0 0 0 0 0 0 0 0 0 0 127 0" result="hardAlpha"/>
<feOffset dy="2"/>
<feGaussianBlur stdDeviation="2"/>
<feComposite in2="hardAlpha" operator="out"/>
<feColorMatrix type="matrix" values="0 0 0 0 0 0 0 0 0 0 0 0 0 0 0 0 0 0 0.24 0"/>
<feBlend mode="normal" in2="BackgroundImageFix" result="effect1_dropShadow_5213_2466"/>
<feBlend mode="normal" in="SourceGraphic" in2="effect1_dropShadow_5213_2466" result="shape"/>
</filter>
</defs>
</svg>
