<svg width="65" height="65" viewBox="0 0 65 65" fill="none" xmlns="http://www.w3.org/2000/svg">
<mask id="path-1-outside-1_4088_126319" maskUnits="userSpaceOnUse" x="0" y="0" width="65" height="65" fill="black">
<rect fill="white" width="65" height="65"/>
<path d="M0 16C0 7.16344 7.16344 0 16 0H44C52.8366 0 60 7.16344 60 16V44C60 52.8366 52.8366 60 44 60H16C7.16344 60 0 52.8366 0 44V16Z"/>
</mask>
<path d="M0 16C0 7.16344 7.16344 0 16 0H44C52.8366 0 60 7.16344 60 16V44C60 52.8366 52.8366 60 44 60H16C7.16344 60 0 52.8366 0 44V16Z" fill="#1565C0"/>
<path d="M0 0H60H0M65 44C65 55.598 55.598 65 44 65H21C9.40202 65 0 55.598 0 44C0 50.0751 7.16344 55 16 55H44C50.0751 55 55 50.0751 55 44H65ZM55 44M0 60V0V60M44 0C55.598 0 65 9.40202 65 21V44C65 55.598 55.598 65 44 65V55C50.0751 55 55 50.0751 55 44V16C55 7.16344 50.0751 0 44 0Z" fill="#DCE8F6" mask="url(#path-1-outside-1_4088_126319)"/>
<path d="M30.1747 9.70898C40.0936 9.70898 48.35 16.826 50.1164 26.232L46.5867 26.2625C46.4446 25.4329 45.9361 24.2054 44.4086 22.1193C42.8811 20.0331 40.797 18.4191 38.395 17.462C35.993 16.505 33.3701 16.2434 30.8264 16.7074C28.2827 17.1714 25.921 18.3423 24.0117 20.0858C22.3901 21.5666 21.1461 23.4137 20.3836 25.473C19.6211 27.5323 19.3622 29.7441 19.6283 31.9238C19.8945 34.1036 20.6781 36.1879 21.9137 38.0032C23.1493 39.8186 24.8009 41.3123 26.7311 42.3594C28.6613 43.4065 30.814 43.9767 33.0095 44.0227C35.2049 44.0687 37.3795 43.5891 39.3518 42.6238C41.3241 41.6584 43.0371 40.2352 44.3476 38.4732C45.6581 36.7113 46.3227 35.4184 46.5512 34.5883L49.9481 34.5752C47.8735 43.5786 39.8081 50.2917 30.1747 50.2917C18.9681 50.2917 9.8833 41.207 9.8833 30.0004C9.8833 18.7937 18.9681 9.70898 30.1747 9.70898Z" fill="#FFFFFE"/>
<path fill-rule="evenodd" clip-rule="evenodd" d="M26.1964 22.4787C28.2589 20.5955 30.9851 19.6088 33.7751 19.7356C36.5652 19.8624 39.1906 21.0924 41.0738 23.1549C42.957 25.2174 43.9437 27.9438 43.8169 30.7339C43.69 33.5239 42.4601 36.1493 40.3976 38.0325C38.335 39.9157 35.6088 40.9022 32.8188 40.7754C30.0287 40.6486 27.4033 39.4186 25.5201 37.3561C23.637 35.2935 22.6502 32.5674 22.7771 29.7773C22.9039 26.9873 24.1338 24.3618 26.1964 22.4787ZM33.7017 21.354C31.3409 21.2467 29.0341 22.0816 27.2888 23.6751C25.5436 25.2685 24.5028 27.4901 24.3955 29.851C24.2882 32.2118 25.1231 34.5186 26.7166 36.2638C28.31 38.009 30.5315 39.0498 32.8922 39.1571C35.2531 39.2644 37.5599 38.4293 39.3051 36.8359C41.0503 35.2424 42.0911 33.021 42.1984 30.6602C42.3057 28.2994 41.4708 25.9926 39.8774 24.2473C38.2839 22.5021 36.0625 21.4614 33.7017 21.354Z" fill="#FFFFFE"/>
</svg>
