<svg width="20" height="20" viewBox="0 0 20 20" fill="none" xmlns="http://www.w3.org/2000/svg">
<path d="M1.66797 4.5835L7.42882 7.84764C9.55263 9.051 10.45 9.051 12.5738 7.84764L18.3346 4.5835" stroke="#D0D0D0" stroke-width="1.5" stroke-linejoin="round"/>
<path d="M18.3215 10.813C18.339 9.99162 18.339 9.17506 18.3215 8.35366C18.267 5.79905 18.2398 4.52174 17.2972 3.57555C16.3546 2.62936 15.0427 2.5964 12.419 2.53047C10.8019 2.48984 9.20073 2.48984 7.58365 2.53047C4.95991 2.59639 3.64804 2.62935 2.70543 3.57554C1.76282 4.52173 1.73558 5.79904 1.68111 8.35365C1.66359 9.17505 1.66359 9.99161 1.68111 10.813C1.73559 13.3676 1.76283 14.6449 2.70543 15.5911C3.64804 16.5373 4.95991 16.5703 7.58366 16.6362C8.67129 16.6635 9.75172 16.6725 10.8346 16.663" stroke="#D0D0D0" stroke-width="1.5" stroke-linecap="round" stroke-linejoin="round"/>
<path d="M15.4167 11.6665L15.6316 12.2474C15.9134 13.009 16.0544 13.3899 16.3322 13.6677C16.61 13.9455 16.9908 14.0864 17.7525 14.3682L18.3333 14.5832L17.7525 14.7981C16.9908 15.0799 16.61 15.2209 16.3322 15.4987C16.0544 15.7765 15.9134 16.1573 15.6316 16.919L15.4167 17.4998L15.2017 16.919C14.9199 16.1573 14.779 15.7765 14.5012 15.4987C14.2233 15.2209 13.8425 15.0799 13.0809 14.7981L12.5 14.5832L13.0809 14.3682C13.8425 14.0864 14.2233 13.9455 14.5012 13.6677C14.779 13.3899 14.9199 13.009 15.2017 12.2474L15.4167 11.6665Z" stroke="#D0D0D0" stroke-width="1.5" stroke-linejoin="round"/>
</svg>
