<svg width="56" height="56" viewBox="0 0 56 56" fill="none" xmlns="http://www.w3.org/2000/svg">
<path d="M5.83398 38.5006C5.83398 40.669 5.83398 41.7532 6.01332 42.6548C6.74978 46.3573 9.64403 49.2515 13.3465 49.988C14.2481 50.1673 15.3323 50.1673 17.5007 50.1673M50.1673 38.5006C50.1673 40.669 50.1673 41.7532 49.988 42.6548C49.2515 46.3573 46.3573 49.2515 42.6548 49.988C41.7532 50.1673 40.669 50.1673 38.5006 50.1673M50.1673 17.5007C50.1673 15.3323 50.1673 14.2481 49.988 13.3465C49.2515 9.64403 46.3573 6.74978 42.6548 6.01332C41.7532 5.83398 40.669 5.83398 38.5006 5.83398M5.83398 17.5007C5.83398 15.3323 5.83398 14.2481 6.01332 13.3465C6.74978 9.64403 9.64403 6.74978 13.3465 6.01332C14.2481 5.83398 15.3323 5.83398 17.5007 5.83398" stroke="#1565C0" stroke-width="3.5" stroke-linecap="round" stroke-linejoin="round"/>
<path d="M28.0007 19.8337V15.167M23.334 26.8337V28.0003M32.6673 26.8337V28.0003M25.6673 19.8337H30.334C34.5675 19.8337 36.6843 19.8337 38.0616 21.0693C38.1916 21.1859 38.3151 21.3094 38.4317 21.4394C39.6673 22.8167 39.6673 24.9334 39.6673 29.167C39.6673 33.4006 39.6673 35.5173 38.4317 36.8946C38.3151 37.0246 38.1916 37.1481 38.0616 37.2647C36.6843 38.5003 34.5675 38.5003 30.334 38.5003H25.6673C21.4338 38.5003 19.317 38.5003 17.9397 37.2647C17.8097 37.1481 17.6862 37.0246 17.5696 36.8946C16.334 35.5173 16.334 33.4006 16.334 29.167C16.334 24.9334 16.334 22.8167 17.5696 21.4394C17.6862 21.3094 17.8097 21.1859 17.9397 21.0693C19.317 19.8337 21.4338 19.8337 25.6673 19.8337Z" stroke="#1565C0" stroke-width="3.5" stroke-linecap="round" stroke-linejoin="round"/>
</svg>
