<svg width="32" height="32" viewBox="0 0 32 32" fill="none" xmlns="http://www.w3.org/2000/svg">
<path d="M18.5667 28H13.4339C7.26001 28 4.17306 28 3.03548 25.9919C1.89789 23.9839 3.47681 21.3219 6.63465 15.998L9.20109 11.6711C12.2345 6.55704 13.7511 4 16.0003 4C18.2495 4 19.7662 6.55703 22.7995 11.6711L25.3661 15.998C28.5238 21.3219 30.1027 23.9839 28.9651 25.9919C27.8275 28 24.7406 28 18.5667 28Z" stroke="#FFFFFE" stroke-width="2" stroke-linecap="round" stroke-linejoin="round"/>
<path d="M16 22.6663V17.333" stroke="#FFFFFE" stroke-width="2" stroke-linecap="round" stroke-linejoin="round"/>
<path d="M16.0003 12.3333H16.167M16.3337 12.3333C16.3337 12.1492 16.1845 12 16.0003 12C15.8162 12 15.667 12.1492 15.667 12.3333C15.667 12.5174 15.8162 12.6667 16.0003 12.6667C16.1845 12.6667 16.3337 12.5174 16.3337 12.3333Z" stroke="#FFFFFE" stroke-width="2" stroke-linecap="round" stroke-linejoin="round"/>
</svg>
