<svg width="76" height="76" viewBox="0 0 76 76" fill="none" xmlns="http://www.w3.org/2000/svg">
<path d="M22.167 57.0003V50.667M38.0003 57.0003V47.5003M53.8337 57.0003V41.167M7.91699 38.0003C7.91699 23.8189 7.91699 16.7282 12.3226 12.3226C16.7282 7.91699 23.8189 7.91699 38.0003 7.91699C52.1816 7.91699 59.2724 7.91699 63.6782 12.3226C68.0837 16.7282 68.0837 23.8189 68.0837 38.0003C68.0837 52.1816 68.0837 59.2724 63.6782 63.6782C59.2724 68.0837 52.1816 68.0837 38.0003 68.0837C23.8189 68.0837 16.7282 68.0837 12.3226 63.6782C7.91699 59.2724 7.91699 52.1816 7.91699 38.0003Z" stroke="#F59E0B" stroke-width="1.5" stroke-linecap="round" stroke-linejoin="round"/>
<path d="M18.9756 36.373C25.8001 36.6004 41.275 35.5705 50.0771 21.6007M44.3091 19.9129L50.2483 18.9571C50.9722 18.8649 52.035 19.4364 52.2964 20.1176L53.8665 25.306" stroke="#F59E0B" stroke-width="1.5" stroke-linecap="round" stroke-linejoin="round"/>
</svg>
