<svg width="32" height="32" viewBox="0 0 32 32" fill="none" xmlns="http://www.w3.org/2000/svg">
<path d="M14.667 26.667C9.66735 26.667 7.16753 26.667 5.41509 25.3938C4.84913 24.9826 4.35141 24.4849 3.94021 23.9189C2.66699 22.1665 2.66699 19.6666 2.66699 14.667C2.66699 9.66735 2.66699 7.16753 3.94021 5.41509C4.35141 4.84913 4.84913 4.35141 5.41509 3.94021C7.16753 2.66699 9.66735 2.66699 14.667 2.66699H15.3337C19.6982 2.66699 21.8805 2.66699 23.4836 3.64939C24.3807 4.1991 25.1349 4.9533 25.6846 5.85033C26.667 7.45346 26.667 9.63575 26.667 14.0003" stroke="#FFFFFE" stroke-width="1.5" stroke-linecap="round" stroke-linejoin="round"/>
<path d="M23.2096 19.2051C23.4926 18.4876 24.5081 18.4876 24.7911 19.2051L24.8401 19.3295C25.5313 21.0821 26.9186 22.4693 28.6711 23.1605L28.7955 23.2096C29.513 23.4926 29.513 24.5081 28.7955 24.7911L28.6711 24.8401C26.9186 25.5313 25.5313 26.9186 24.8401 28.6711L24.7911 28.7955C24.5081 29.513 23.4926 29.513 23.2096 28.7955L23.1605 28.6711C22.4693 26.9186 21.0821 25.5313 19.3295 24.8401L19.2051 24.7911C18.4876 24.5081 18.4876 23.4926 19.2051 23.2096L19.3295 23.1605C21.0821 22.4693 22.4693 21.0821 23.1605 19.3295L23.2096 19.2051Z" stroke="#FFFFFE" stroke-width="1.5" stroke-linecap="round" stroke-linejoin="round"/>
<path d="M14.6663 9.33301H9.33301V10.6663M14.6663 9.33301H19.9997V10.6663M14.6663 9.33301V19.9997M14.6663 19.9997H13.333M14.6663 19.9997H15.9997" stroke="#FFFFFE" stroke-width="1.5" stroke-linecap="round" stroke-linejoin="round"/>
</svg>
