<svg width="80" height="80" viewBox="0 0 80 80" fill="none" xmlns="http://www.w3.org/2000/svg">
<rect width="80" height="80" rx="40" fill="#FEF0DA"/>
<path d="M51.0007 30.4997C50.9225 27.9106 50.6335 26.3663 49.5635 25.2975C48.0975 23.833 45.7378 23.833 41.0187 23.833H34.3448C29.6257 23.833 27.2661 23.833 25.8 25.2975C24.334 26.7619 24.334 29.119 24.334 33.833V47.1663C24.334 51.8803 24.334 54.2373 25.8 55.7018C27.2661 57.1663 29.6257 57.1663 34.3448 57.1663H41.0187C45.7378 57.1663 48.0975 57.1663 49.5635 55.7018C50.6335 54.633 50.9225 53.0888 51.0007 50.4997" stroke="#F59E0B" stroke-width="3.5" stroke-linecap="round" stroke-linejoin="round"/>
<path d="M50.4331 36.7632L41.6561 45.5402L40.0029 50.4997L44.9624 48.8465L53.7394 40.0695L55.7013 38.1077C56.1519 37.657 56.3773 37.4317 56.4978 37.1887C56.7269 36.7261 56.7269 36.1831 56.4978 35.7205C56.3773 35.4774 56.1519 35.2521 55.7013 34.8014C55.2504 34.3507 55.0251 34.1254 54.7821 34.0049C54.3196 33.7757 53.7766 33.7757 53.3139 34.0049C53.0709 34.1254 52.8456 34.3507 52.3949 34.8014L50.4331 36.7632ZM53.7394 40.0695L50.4331 36.7632" stroke="#F59E0B" stroke-width="3.5" stroke-linecap="round" stroke-linejoin="round"/>
<path d="M29.334 52.1667H31.0007L33.084 48L35.1673 52.1667H36.834" stroke="#F59E0B" stroke-width="3.5" stroke-linecap="round" stroke-linejoin="round"/>
<path d="M30 30.5H43.3333" stroke="#F59E0B" stroke-width="3.5" stroke-linecap="round" stroke-linejoin="round"/>
<path d="M30 37.167H40" stroke="#F59E0B" stroke-width="3.5" stroke-linecap="round" stroke-linejoin="round"/>
</svg>
