<svg width="62" height="62" viewBox="0 0 62 62" fill="none" xmlns="http://www.w3.org/2000/svg">
<path d="M15 49.8333V43.5M30.8333 49.8333V40.3333M46.6667 49.8333V34M0.75 30.8333C0.75 16.6519 0.75 9.56122 5.15559 5.15559C9.56122 0.75 16.6519 0.75 30.8333 0.75C45.0146 0.75 52.1054 0.75 56.5112 5.15559C60.9167 9.56122 60.9167 16.6519 60.9167 30.8333C60.9167 45.0146 60.9167 52.1054 56.5112 56.5112C52.1054 60.9167 45.0146 60.9167 30.8333 60.9167C16.6519 60.9167 9.56122 60.9167 5.15559 56.5112C0.75 52.1054 0.75 45.0146 0.75 30.8333Z" stroke="#F59E0B" stroke-width="1.5" stroke-linecap="round" stroke-linejoin="round"/>
</svg>
