<svg width="32" height="32" viewBox="0 0 32 32" fill="none" xmlns="http://www.w3.org/2000/svg">
<path d="M9.33301 28V24" stroke="#FFFFFE" stroke-width="2" stroke-linecap="round" stroke-linejoin="round"/>
<path d="M22.667 28V20" stroke="#FFFFFE" stroke-width="2" stroke-linecap="round" stroke-linejoin="round"/>
<path d="M22.667 8V4" stroke="#FFFFFE" stroke-width="2" stroke-linecap="round" stroke-linejoin="round"/>
<path d="M9.33301 12V4" stroke="#FFFFFE" stroke-width="2" stroke-linecap="round" stroke-linejoin="round"/>
<path d="M9.33301 24C8.0905 24 7.46925 24 6.97918 23.7971C6.32578 23.5264 5.80665 23.0072 5.53599 22.3539C5.33301 21.8637 5.33301 21.2425 5.33301 20C5.33301 18.7575 5.33301 18.1363 5.53599 17.6461C5.80665 16.9928 6.32578 16.4736 6.97918 16.2029C7.46925 16 8.0905 16 9.33301 16C10.5755 16 11.1968 16 11.6868 16.2029C12.3402 16.4736 12.8594 16.9928 13.13 17.6461C13.333 18.1363 13.333 18.7575 13.333 20C13.333 21.2425 13.333 21.8637 13.13 22.3539C12.8594 23.0072 12.3402 23.5264 11.6868 23.7971C11.1968 24 10.5755 24 9.33301 24Z" stroke="#FFFFFE" stroke-width="2" stroke-linecap="round" stroke-linejoin="round"/>
<path d="M22.667 16C21.4245 16 20.8033 16 20.3131 15.7971C19.6598 15.5264 19.1406 15.0072 18.8699 14.3539C18.667 13.8637 18.667 13.2425 18.667 12C18.667 10.7575 18.667 10.1362 18.8699 9.64617C19.1406 8.99277 19.6598 8.47364 20.3131 8.20299C20.8033 8 21.4245 8 22.667 8C23.9095 8 24.5307 8 25.0209 8.20299C25.6742 8.47364 26.1934 8.99277 26.4641 9.64617C26.667 10.1362 26.667 10.7575 26.667 12C26.667 13.2425 26.667 13.8637 26.4641 14.3539C26.1934 15.0072 25.6742 15.5264 25.0209 15.7971C24.5307 16 23.9095 16 22.667 16Z" stroke="#FFFFFE" stroke-width="2" stroke-linecap="round" stroke-linejoin="round"/>
</svg>
