<svg width="32" height="32" viewBox="0 0 32 32" fill="none" xmlns="http://www.w3.org/2000/svg">
<path d="M4.66699 16.667V26.0003C4.66699 26.6215 4.66699 26.9322 4.76849 27.1773C4.90381 27.5039 5.16338 27.7635 5.49009 27.8989C5.73511 28.0003 6.04574 28.0003 6.66699 28.0003C7.28825 28.0003 7.59887 28.0003 7.8439 27.8989C8.17061 27.7635 8.43018 27.5039 8.5655 27.1773C8.66699 26.9322 8.66699 26.6215 8.66699 26.0003V16.667C8.66699 16.0458 8.66699 15.7351 8.5655 15.4901C8.43018 15.1634 8.17061 14.9038 7.8439 14.7685C7.59887 14.667 7.28825 14.667 6.66699 14.667C6.04574 14.667 5.73511 14.667 5.49009 14.7685C5.16338 14.9038 4.90381 15.1634 4.76849 15.4901C4.66699 15.7351 4.66699 16.0458 4.66699 16.667Z" stroke="#FFFFFE" stroke-width="2" stroke-linecap="square" stroke-linejoin="round"/>
<path d="M14 19.333V25.999C14 26.6202 14 26.9309 14.1015 27.1759C14.2368 27.5026 14.4964 27.7622 14.8231 27.8975C15.0681 27.999 15.3788 27.999 16 27.999C16.6212 27.999 16.9319 27.999 17.1769 27.8975C17.5036 27.7622 17.7632 27.5026 17.8985 27.1759C18 26.9309 18 26.6202 18 25.999V19.333C18 18.7118 18 18.4011 17.8985 18.1561C17.7632 17.8294 17.5036 17.5698 17.1769 17.4345C16.9319 17.333 16.6212 17.333 16 17.333C15.3788 17.333 15.0681 17.333 14.8231 17.4345C14.4964 17.5698 14.2368 17.8294 14.1015 18.1561C14 18.4011 14 18.7118 14 19.333Z" stroke="#FFFFFE" stroke-width="2" stroke-linecap="square" stroke-linejoin="round"/>
<path d="M23.333 14V26C23.333 26.6212 23.333 26.9319 23.4345 27.1769C23.5698 27.5036 23.8294 27.7632 24.1561 27.8985C24.4011 28 24.7118 28 25.333 28C25.9542 28 26.2649 28 26.5099 27.8985C26.8366 27.7632 27.0962 27.5036 27.2315 27.1769C27.333 26.9319 27.333 26.6212 27.333 26V14C27.333 13.3788 27.333 13.0681 27.2315 12.8231C27.0962 12.4964 26.8366 12.2368 26.5099 12.1015C26.2649 12 25.9542 12 25.333 12C24.7118 12 24.4011 12 24.1561 12.1015C23.8294 12.2368 23.5698 12.4964 23.4345 12.8231C23.333 13.0681 23.333 13.3788 23.333 14Z" stroke="#FFFFFE" stroke-width="2" stroke-linecap="square" stroke-linejoin="round"/>
<path d="M8.66699 8.66699C8.66699 9.77157 7.77157 10.667 6.66699 10.667C5.56242 10.667 4.66699 9.77157 4.66699 8.66699C4.66699 7.56242 5.56242 6.66699 6.66699 6.66699C7.77157 6.66699 8.66699 7.56242 8.66699 8.66699Z" stroke="#FFFFFE" stroke-width="2" stroke-linecap="square" stroke-linejoin="round"/>
<path d="M27.333 6C27.333 7.10457 26.4375 8 25.333 8C24.2285 8 23.333 7.10457 23.333 6C23.333 4.89543 24.2285 4 25.333 4C26.4375 4 27.333 4.89543 27.333 6Z" stroke="#FFFFFE" stroke-width="2" stroke-linecap="square" stroke-linejoin="round"/>
<path d="M18 11.333C18 12.4376 17.1045 13.333 16 13.333C14.8955 13.333 14 12.4376 14 11.333C14 10.2284 14.8955 9.33301 16 9.33301C17.1045 9.33301 18 10.2284 18 11.333Z" stroke="#FFFFFE" stroke-width="2" stroke-linecap="square" stroke-linejoin="round"/>
<path d="M8.59082 9.21599L14.077 10.7835M17.7374 10.3406L23.5971 6.99219" stroke="#FFFFFE" stroke-width="2" stroke-linecap="square" stroke-linejoin="round"/>
</svg>
