<svg width="32" height="32" viewBox="0 0 32 32" fill="none" xmlns="http://www.w3.org/2000/svg">
<path d="M10.667 22.667H21.3337" stroke="#FFFFFE" stroke-width="2" stroke-linecap="round" stroke-linejoin="round"/>
<path d="M10.667 17.333H16.0003" stroke="#FFFFFE" stroke-width="2" stroke-linecap="round" stroke-linejoin="round"/>
<path d="M17.333 3.33366V4.00033C17.333 7.77157 17.333 9.65718 18.5046 10.8288C19.6762 12.0003 21.5618 12.0003 25.333 12.0003H25.9997M26.6663 14.2095V18.667C26.6663 23.6953 26.6663 26.2095 25.1042 27.7715C23.5422 29.3337 21.0279 29.3337 15.9997 29.3337C10.9714 29.3337 8.45721 29.3337 6.8951 27.7715C5.33301 26.2095 5.33301 23.6953 5.33301 18.667V12.6081C5.33301 8.28142 5.33301 6.11807 6.51443 4.65277C6.75311 4.35674 7.02275 4.0871 7.31878 3.84842C8.78409 2.66699 10.9474 2.66699 15.2741 2.66699C16.2149 2.66699 16.6851 2.66699 17.1159 2.81901C17.2055 2.85062 17.2933 2.88699 17.379 2.92799C17.7911 3.12506 18.1237 3.45766 18.7889 4.12283L25.1042 10.4382C25.875 11.209 26.2603 11.5944 26.4634 12.0844C26.6663 12.5745 26.6663 13.1195 26.6663 14.2095Z" stroke="#FFFFFE" stroke-width="2" stroke-linecap="round" stroke-linejoin="round"/>
</svg>
