<svg width="56" height="56" viewBox="0 0 56 56" fill="none" xmlns="http://www.w3.org/2000/svg">
<path d="M42.0013 14.0003C41.8919 10.3756 41.4873 8.21361 39.9893 6.71725C37.9369 4.66699 34.6333 4.66699 28.0265 4.66699H18.6831C12.0763 4.66699 8.77291 4.66699 6.72044 6.71725C4.66797 8.7675 4.66797 12.0673 4.66797 18.667V37.3337C4.66797 43.9333 4.66797 47.2331 6.72044 49.2834C8.77291 51.3337 12.0763 51.3337 18.6831 51.3337H28.0265C34.6333 51.3337 37.9369 51.3337 39.9893 49.2834C41.4873 47.787 41.8919 45.6252 42.0013 42.0003" stroke="#22C55E" stroke-width="3.5" stroke-linecap="round" stroke-linejoin="round"/>
<path d="M42.6061 22.7692L30.3183 35.057L28.0039 42.0003L34.9472 39.6859L47.235 27.3981L49.9816 24.6515C50.6125 24.0206 50.928 23.7051 51.0967 23.3649C51.4175 22.7173 51.4175 21.9571 51.0967 21.3095C50.928 20.9692 50.6125 20.6537 49.9816 20.0228C49.3504 19.3918 49.0349 19.0763 48.6947 18.9077C48.0472 18.5868 47.287 18.5868 46.6393 18.9077C46.2991 19.0763 45.9836 19.3918 45.3527 20.0228L42.6061 22.7692ZM47.235 27.3981L42.6061 22.7692" stroke="#22C55E" stroke-width="3.5" stroke-linecap="round" stroke-linejoin="round"/>
<path d="M11.668 44.3333H14.0013L16.918 38.5L19.8346 44.3333H22.168" stroke="#22C55E" stroke-width="3.5" stroke-linecap="round" stroke-linejoin="round"/>
<path d="M14 14H32.6667" stroke="#22C55E" stroke-width="3.5" stroke-linecap="round" stroke-linejoin="round"/>
<path d="M14 23.333H28" stroke="#22C55E" stroke-width="3.5" stroke-linecap="round" stroke-linejoin="round"/>
</svg>
