<svg width="40" height="40" viewBox="0 0 40 40" fill="none" xmlns="http://www.w3.org/2000/svg">
<rect width="40" height="40" rx="8" fill="#DEF6E7"/>
<path fill-rule="evenodd" clip-rule="evenodd" d="M12.823 9.0955C14.263 8.9275 16.5905 8.75 20 8.75C20.9925 8.75 21.8935 8.765 22.7075 8.7905C22.7752 8.79261 22.8423 8.80388 22.907 8.824C23.48 9.0025 25.0205 9.6405 27.176 11.7425C29.207 13.723 29.908 15.1745 30.1375 15.81C30.1635 15.8833 30.1782 15.9588 30.1815 16.0365C30.2235 17.167 30.25 18.4815 30.25 20C30.25 24.055 30.0615 26.6535 29.887 28.192C29.722 29.6415 28.621 30.736 27.177 30.9045C25.737 31.0725 23.409 31.25 20 31.25C16.591 31.25 14.2625 31.0725 12.823 30.9045C11.379 30.736 10.278 29.6415 10.113 28.192C9.938 26.6535 9.75 24.055 9.75 20C9.75 15.945 9.9385 13.3465 10.113 11.808C10.278 10.3585 11.379 9.264 12.823 9.0955ZM14.5 27.875C14.2679 27.875 14.0454 27.7828 13.8813 27.6187C13.7172 27.4546 13.625 27.2321 13.625 27C13.625 26.7679 13.7172 26.5454 13.8813 26.3813C14.0454 26.2172 14.2679 26.125 14.5 26.125H25.5C25.7321 26.125 25.9546 26.2172 26.1187 26.3813C26.2828 26.5454 26.375 26.7679 26.375 27C26.375 27.2321 26.2828 27.4546 26.1187 27.6187C25.9546 27.7828 25.7321 27.875 25.5 27.875H14.5ZM13.625 23.5C13.625 23.017 14.017 22.625 14.5 22.625H25.5C25.7321 22.625 25.9546 22.7172 26.1187 22.8813C26.2828 23.0454 26.375 23.2679 26.375 23.5C26.375 23.7321 26.2828 23.9546 26.1187 24.1187C25.9546 24.2828 25.7321 24.375 25.5 24.375H14.5C14.2679 24.375 14.0454 24.2828 13.8813 24.1187C13.7172 23.9546 13.625 23.7321 13.625 23.5ZM21.7235 13.602C22.6658 13.4258 23.6244 13.3521 24.5825 13.382C24.8545 13.3905 25.113 13.5023 25.3055 13.6947C25.4979 13.8871 25.6099 14.1455 25.6185 14.4175C25.6479 15.3757 25.5739 16.3342 25.398 17.2765C25.225 18.1895 24.135 18.428 23.5395 17.833L22.97 17.263L22.852 17.3665C22.6654 17.5307 22.4822 17.6987 22.3025 17.8705C21.8535 18.3005 21.289 18.882 20.8015 19.5105C20.4345 19.9835 19.8675 20.1215 19.4055 20.0505C18.94 19.978 18.424 19.6655 18.2405 19.0635C18.0575 18.4665 17.8255 17.775 17.5825 17.2115C17.0555 17.609 16.223 18.399 15.2325 19.913C15.1055 20.1073 14.9065 20.2431 14.6793 20.2907C14.4521 20.3382 14.2153 20.2935 14.021 20.1665C13.8267 20.0395 13.6909 19.8405 13.6433 19.6133C13.5958 19.3861 13.6405 19.1493 13.7675 18.955C15.112 16.901 16.2725 15.939 16.99 15.498C17.7445 15.035 18.64 15.375 18.993 16.091C19.277 16.667 19.5395 17.389 19.7485 18.0295C20.1714 17.5316 20.6203 17.0564 21.0935 16.606C21.3365 16.373 21.5465 16.184 21.696 16.0525L21.7295 16.0225L21.1675 15.4605C20.572 14.8655 20.8105 13.7755 21.7235 13.602Z" fill="#22C55E"/>
</svg>
