<svg width="443" height="338" viewBox="0 0 443 338" fill="none" xmlns="http://www.w3.org/2000/svg">
<path d="M379.267 -421C564.663 -421 718.983 -287.975 752 -112.166L686.026 -111.596C683.37 -127.103 673.866 -150.047 645.316 -189.038C616.764 -228.031 577.81 -258.198 532.914 -276.087C488.019 -293.975 438.993 -298.865 391.449 -290.192C343.905 -281.519 299.762 -259.635 264.074 -227.046C233.766 -199.368 210.514 -164.844 196.262 -126.353C182.01 -87.8633 177.17 -46.5217 182.145 -5.78058C187.119 34.9605 201.766 73.92 224.86 107.85C247.955 141.78 278.826 169.699 314.903 189.271C350.98 208.843 391.218 219.5 432.253 220.36C473.287 221.219 513.933 212.255 550.797 194.212C587.663 176.168 619.68 149.568 644.175 116.634C668.67 83.7018 681.092 59.5357 685.363 44.0208L748.855 43.7765C710.078 212.059 559.326 337.535 379.267 337.535C169.804 337.535 0 167.731 0 -41.7325C0 -251.196 169.804 -421 379.267 -421Z" fill="#FFFFFE" fill-opacity="0.08"/>
<path fill-rule="evenodd" clip-rule="evenodd" d="M304.909 -182.321C343.46 -217.52 394.415 -235.963 446.564 -233.592C498.712 -231.222 547.785 -208.232 582.983 -169.682C618.182 -131.13 636.625 -80.1719 634.255 -28.0227C631.884 24.1259 608.895 73.1984 570.344 108.397C531.793 143.595 480.837 162.035 428.689 159.664C376.54 157.294 327.468 134.305 292.269 95.7535C257.071 57.2022 238.627 6.24747 240.998 -45.9017C243.369 -98.0506 266.358 -147.123 304.909 -182.321ZM445.191 -203.342C401.065 -205.347 357.948 -189.742 325.328 -159.959C292.708 -130.175 273.255 -88.6511 271.249 -44.5249C269.243 -0.398987 284.848 42.718 314.632 75.3381C344.415 107.957 385.936 127.411 430.062 129.417C474.188 131.423 517.304 115.814 549.925 86.0306C582.545 56.247 601.998 14.7266 604.004 -29.3995C606.01 -73.5257 590.405 -116.642 560.621 -149.262C530.838 -181.882 489.317 -201.335 445.191 -203.342Z" fill="#FFFFFE" fill-opacity="0.08"/>
</svg>
