<svg width="32" height="32" viewBox="0 0 32 32" fill="none" xmlns="http://www.w3.org/2000/svg">
<path d="M28.167 18.8334C27.3892 19.6112 26.4448 20.0001 25.3337 20.0001C24.2226 20.0001 23.2781 19.6112 22.5003 18.8334C21.7226 18.0557 21.3337 17.1112 21.3337 16.0001C21.3337 14.889 21.7226 13.9446 22.5003 13.1668C23.2781 12.389 24.2226 12.0001 25.3337 12.0001C26.4448 12.0001 27.3892 12.389 28.167 13.1668C28.9448 13.9446 29.3337 14.889 29.3337 16.0001C29.3337 17.1112 28.9448 18.0557 28.167 18.8334ZM13.567 17.3334H4.00033C3.62255 17.3334 3.30611 17.2054 3.051 16.9494C2.79589 16.6934 2.66789 16.377 2.667 16.0001C2.66611 15.6232 2.79411 15.3063 3.051 15.0494C3.30789 14.7926 3.62433 14.665 4.00033 14.6668H13.567L11.067 12.1668C10.8226 11.9223 10.7003 11.6166 10.7003 11.2494C10.7003 10.8823 10.8226 10.5659 11.067 10.3001C11.3337 10.0334 11.6506 9.90011 12.0177 9.90011C12.3848 9.90011 12.7012 10.0334 12.967 10.3001L17.7337 15.0668C18.0003 15.3334 18.1337 15.6446 18.1337 16.0001C18.1337 16.3557 18.0003 16.6668 17.7337 16.9334L12.9337 21.7334C12.6892 21.9779 12.3839 22.1059 12.0177 22.1174C11.6514 22.129 11.3346 22.001 11.067 21.7334C10.8226 21.489 10.7003 21.1779 10.7003 20.8001C10.7003 20.4223 10.8226 20.1112 11.067 19.8668L13.567 17.3334Z" fill="#FFFFFE"/>
</svg>
