<svg width="132" height="27" viewBox="0 0 132 27" fill="none" xmlns="http://www.w3.org/2000/svg">
<path d="M10.0252 1.97461C14.9257 1.97461 19.0049 5.49087 19.8776 10.138L18.1337 10.1531C18.0635 9.74319 17.8123 9.1367 17.0576 8.10605C16.3029 7.07536 15.2732 6.27794 14.0865 5.80509C12.8998 5.33225 11.6039 5.203 10.3472 5.43224C9.09044 5.6615 7.9236 6.23998 6.98026 7.1014C6.17913 7.83299 5.56451 8.74559 5.18779 9.763C4.81107 10.7804 4.68314 11.8732 4.81463 12.9501C4.94612 14.027 5.33329 15.0568 5.94373 15.9537C6.55419 16.8506 7.3702 17.5886 8.32383 18.1059C9.27746 18.6232 10.3411 18.9049 11.4257 18.9277C12.5104 18.9504 13.5848 18.7134 14.5592 18.2365C15.5337 17.7596 16.38 17.0564 17.0275 16.1859C17.6749 15.3154 18.0033 14.6766 18.1162 14.2665L19.7945 14.26C18.7695 18.7082 14.7847 22.025 10.0252 22.025C4.48842 22.025 0 17.5365 0 11.9998C0 6.46303 4.48842 1.97461 10.0252 1.97461Z" fill="#1565C0"/>
<path fill-rule="evenodd" clip-rule="evenodd" d="M8.05965 8.2836C9.07867 7.3532 10.4256 6.8657 11.804 6.92835C13.1825 6.99101 14.4796 7.5987 15.41 8.6177C16.3404 9.63673 16.8279 10.9837 16.7652 12.3622C16.7026 13.7406 16.0949 15.0377 15.0759 15.9681C14.0569 16.8985 12.71 17.386 11.3315 17.3233C9.95307 17.2606 8.65596 16.653 7.72555 15.6339C6.79514 14.6149 6.30764 13.268 6.3703 11.8896C6.43296 10.5111 7.04063 9.21401 8.05965 8.2836ZM11.7677 7.72797C10.6013 7.67495 9.46164 8.08745 8.59939 8.87471C7.73714 9.66198 7.22294 10.7596 7.16992 11.926C7.1169 13.0924 7.52939 14.2321 8.31665 15.0943C9.10391 15.9565 10.2015 16.4707 11.3678 16.5238C12.5342 16.5768 13.6739 16.1642 14.5362 15.3769C15.3984 14.5897 15.9126 13.4922 15.9656 12.3258C16.0186 11.1594 15.6062 10.0197 14.8189 9.15744C14.0316 8.29521 12.9341 7.781 11.7677 7.72797Z" fill="#1565C0"/>
<path d="M34.2328 4.62838C35.2915 4.62838 36.1576 4.78878 36.8313 5.10959C37.5211 5.41435 38.1306 5.77526 38.6599 6.19231C38.9807 6.43291 39.2213 6.46499 39.3817 6.28855C39.5582 6.09606 39.6785 5.65496 39.7426 4.96522H40.296C40.2639 5.57475 40.2399 6.31261 40.2238 7.17878C40.2078 8.02892 40.1998 9.16778 40.1998 10.5954H39.6464C39.5341 9.88959 39.4218 9.31214 39.3096 8.86301C39.2133 8.41388 39.077 8.02892 38.9005 7.70811C38.7401 7.38731 38.5156 7.07452 38.2268 6.76976C37.7617 6.19231 37.1922 5.77526 36.5185 5.51861C35.8449 5.26197 35.1311 5.13365 34.3772 5.13365C33.5591 5.13365 32.8373 5.34217 32.2117 5.75922C31.5862 6.16022 31.0568 6.73767 30.6237 7.49157C30.2067 8.24546 29.8859 9.1357 29.6613 10.1623C29.4368 11.1889 29.3245 12.3117 29.3245 13.5307C29.3245 14.7819 29.4448 15.9207 29.6854 16.9473C29.926 17.9578 30.2709 18.832 30.72 19.5699C31.1851 20.2917 31.7385 20.8531 32.3802 21.2541C33.0378 21.6391 33.7676 21.8316 34.5696 21.8316C35.2273 21.8316 35.909 21.7033 36.6148 21.4466C37.3206 21.1739 37.882 20.7649 38.299 20.2195C38.7481 19.7383 39.0529 19.201 39.2133 18.6075C39.3898 17.998 39.5341 17.1719 39.6464 16.1293H40.1998C40.1998 17.605 40.2078 18.8 40.2238 19.7143C40.2399 20.6125 40.2639 21.3744 40.296 22H39.7426C39.6785 21.3103 39.5662 20.8772 39.4058 20.7007C39.2614 20.5243 39.0128 20.5484 38.6599 20.7729C38.0664 21.19 37.4328 21.5589 36.7591 21.8797C36.1015 22.1845 35.2514 22.3368 34.2087 22.3368C32.6208 22.3368 31.2333 21.992 30.0463 21.3022C28.8593 20.6125 27.937 19.618 27.2793 18.3188C26.6217 17.0195 26.2929 15.4556 26.2929 13.627C26.2929 11.8305 26.6297 10.2585 27.3034 8.91113C27.9931 7.56375 28.9315 6.51311 30.1185 5.75922C31.3055 5.00532 32.6769 4.62838 34.2328 4.62838ZM46.1508 3.13663V19.7624C46.1508 20.4361 46.2791 20.8932 46.5358 21.1338C46.8084 21.3744 47.2576 21.4947 47.8831 21.4947V22C47.6105 21.984 47.1854 21.9679 46.6079 21.9519C46.0305 21.9198 45.453 21.9038 44.8756 21.9038C44.2981 21.9038 43.7127 21.9198 43.1192 21.9519C42.5417 21.9679 42.1086 21.984 41.8199 22V21.4947C42.4455 21.4947 42.8866 21.3744 43.1432 21.1338C43.4159 20.8932 43.5523 20.4361 43.5523 19.7624V6.02388C43.5523 5.30207 43.432 4.77274 43.1914 4.4359C42.9508 4.08301 42.4936 3.90657 41.8199 3.90657V3.4013C42.3332 3.44942 42.8305 3.47348 43.3117 3.47348C43.841 3.47348 44.3463 3.44942 44.8275 3.4013C45.3087 3.33714 45.7498 3.24891 46.1508 3.13663ZM51.4428 3.5216C51.94 3.5216 52.3571 3.682 52.6939 4.00281C53.0308 4.30757 53.1992 4.69254 53.1992 5.15771C53.1992 5.62288 53.0308 6.01586 52.6939 6.33667C52.3571 6.64143 51.94 6.79382 51.4428 6.79382C50.9455 6.79382 50.5285 6.64143 50.1916 6.33667C49.8548 6.01586 49.6864 5.62288 49.6864 5.15771C49.6864 4.69254 49.8548 4.30757 50.1916 4.00281C50.5285 3.682 50.9455 3.5216 51.4428 3.5216ZM52.8864 9.32016V19.7624C52.8864 20.4361 53.0147 20.8932 53.2714 21.1338C53.544 21.3744 53.9932 21.4947 54.6187 21.4947V22C54.3461 21.984 53.921 21.9679 53.3435 21.9519C52.7821 21.9198 52.2047 21.9038 51.6112 21.9038C51.0498 21.9038 50.4723 21.9198 49.8788 21.9519C49.2853 21.9679 48.8442 21.984 48.5555 22V21.4947C49.1811 21.4947 49.6222 21.3744 49.8788 21.1338C50.1515 20.8932 50.2879 20.4361 50.2879 19.7624V12.2074C50.2879 11.4856 50.1676 10.9563 49.927 10.6194C49.6864 10.2665 49.2292 10.0901 48.5555 10.0901V9.58482C49.0688 9.63295 49.5661 9.65701 50.0473 9.65701C50.5926 9.65701 51.0979 9.63295 51.5631 9.58482C52.0443 9.52066 52.4854 9.43244 52.8864 9.32016ZM63.6608 9.24798C64.3024 9.24798 64.8237 9.3362 65.2247 9.51264C65.6417 9.67305 65.9866 9.89761 66.2593 10.1863C66.548 10.4911 66.7485 10.8841 66.8608 11.3653C66.9891 11.8465 67.0533 12.4961 67.0533 13.3142V19.7624C67.0533 20.4361 67.1816 20.8932 67.4382 21.1338C67.7109 21.3744 68.1601 21.4947 68.7856 21.4947V22C68.5129 21.984 68.0879 21.9679 67.5104 21.9519C66.933 21.9198 66.3635 21.9038 65.8021 21.9038C65.2568 21.9038 64.7114 21.9198 64.166 21.9519C63.6367 21.9679 63.2357 21.984 62.963 22V21.4947C63.5084 21.4947 63.8933 21.3744 64.1179 21.1338C64.3425 20.8932 64.4548 20.4361 64.4548 19.7624V12.6405C64.4548 12.1753 64.4147 11.7583 64.3345 11.3894C64.2543 11.0044 64.0858 10.6996 63.8292 10.4751C63.5725 10.2345 63.1876 10.1142 62.6743 10.1142C62.0808 10.1142 61.5515 10.2826 61.0863 10.6194C60.6372 10.9563 60.2763 11.4214 60.0036 12.0149C59.7469 12.5924 59.6186 13.242 59.6186 13.9638V19.7624C59.6186 20.4361 59.7309 20.8932 59.9555 21.1338C60.1961 21.3744 60.581 21.4947 61.1104 21.4947V22C60.8537 21.984 60.4607 21.9679 59.9314 21.9519C59.4181 21.9198 58.8808 21.9038 58.3193 21.9038C57.774 21.9038 57.2045 21.9198 56.6111 21.9519C56.0176 21.9679 55.5765 21.984 55.2877 22V21.4947C55.9133 21.4947 56.3544 21.3744 56.6111 21.1338C56.8837 20.8932 57.0201 20.4361 57.0201 19.7624V12.2074C57.0201 11.4856 56.8998 10.9563 56.6592 10.6194C56.4186 10.2665 55.9614 10.0901 55.2877 10.0901V9.58482C55.801 9.63295 56.2983 9.65701 56.7795 9.65701C57.3249 9.65701 57.8301 9.63295 58.2953 9.58482C58.7765 9.52066 59.2176 9.43244 59.6186 9.32016V11.9427C60.0357 10.9482 60.6051 10.2505 61.3269 9.84949C62.0648 9.44848 62.8427 9.24798 63.6608 9.24798ZM73.7791 9.24798C74.4207 9.24798 74.9741 9.35224 75.4393 9.56076C75.9205 9.75325 76.2653 9.92969 76.4739 10.0901C77.0032 10.5071 77.332 10.2345 77.4603 9.27204H77.9897C77.9576 9.72117 77.9335 10.2665 77.9175 10.9081C77.9015 11.5337 77.8934 12.3678 77.8934 13.4104H77.3641C77.2679 12.8169 77.0994 12.2395 76.8588 11.6781C76.6343 11.1167 76.2974 10.6515 75.8483 10.2826C75.4152 9.91365 74.8458 9.72919 74.14 9.72919C73.6107 9.72919 73.1696 9.88157 72.8167 10.1863C72.4638 10.4751 72.2874 10.9081 72.2874 11.4856C72.2874 11.9668 72.4317 12.3839 72.7204 12.7367C73.0092 13.0896 73.3781 13.4185 73.8272 13.7232C74.2924 14.028 74.7896 14.3568 75.319 14.7097C75.9125 15.1107 76.4418 15.5117 76.907 15.9127C77.3882 16.2977 77.7651 16.7308 78.0378 17.212C78.3265 17.6932 78.4709 18.2546 78.4709 18.8962C78.4709 19.6341 78.2704 20.2596 77.8694 20.7729C77.4844 21.2862 76.9711 21.6792 76.3295 21.9519C75.6879 22.2085 74.9821 22.3368 74.2122 22.3368C73.8272 22.3368 73.4663 22.2967 73.1295 22.2165C72.7926 22.1524 72.4798 22.0642 72.1911 21.9519C72.0147 21.8556 71.8382 21.7594 71.6618 21.6632C71.5014 21.5509 71.341 21.4466 71.1806 21.3504C71.0202 21.2381 70.8758 21.2541 70.7475 21.3985C70.6192 21.5429 70.5229 21.7995 70.4588 22.1684H69.9294C69.9615 21.6551 69.9856 21.0296 70.0016 20.2917C70.0177 19.5539 70.0257 18.5754 70.0257 17.3563H70.555C70.6673 18.2386 70.8357 19.0165 71.0603 19.6902C71.2848 20.3639 71.6137 20.8932 72.0468 21.2782C72.4959 21.6471 73.1054 21.8316 73.8753 21.8316C74.1801 21.8316 74.4849 21.7674 74.7896 21.6391C75.0944 21.4947 75.343 21.2702 75.5355 20.9654C75.744 20.6606 75.8483 20.2516 75.8483 19.7383C75.8483 19.0325 75.5997 18.4551 75.1024 18.006C74.6212 17.5408 73.9956 17.0516 73.2257 16.5383C72.6803 16.1533 72.159 15.7764 71.6618 15.4074C71.1806 15.0225 70.7876 14.5974 70.4828 14.1322C70.1781 13.651 70.0257 13.0816 70.0257 12.424C70.0257 11.7021 70.1941 11.1087 70.5309 10.6435C70.8838 10.1783 71.349 9.83345 71.9265 9.60888C72.5039 9.36828 73.1215 9.24798 73.7791 9.24798ZM82.5888 3.5216C83.086 3.5216 83.5031 3.682 83.8399 4.00281C84.1768 4.30757 84.3452 4.69254 84.3452 5.15771C84.3452 5.62288 84.1768 6.01586 83.8399 6.33667C83.5031 6.64143 83.086 6.79382 82.5888 6.79382C82.0915 6.79382 81.6745 6.64143 81.3377 6.33667C81.0008 6.01586 80.8324 5.62288 80.8324 5.15771C80.8324 4.69254 81.0008 4.30757 81.3377 4.00281C81.6745 3.682 82.0915 3.5216 82.5888 3.5216ZM84.0324 9.32016V19.7624C84.0324 20.4361 84.1607 20.8932 84.4174 21.1338C84.6901 21.3744 85.1392 21.4947 85.7648 21.4947V22C85.4921 21.984 85.067 21.9679 84.4896 21.9519C83.9282 21.9198 83.3507 21.9038 82.7572 21.9038C82.1958 21.9038 81.6184 21.9198 81.0249 21.9519C80.4314 21.9679 79.9903 21.984 79.7015 22V21.4947C80.3271 21.4947 80.7682 21.3744 81.0249 21.1338C81.2975 20.8932 81.4339 20.4361 81.4339 19.7624V12.2074C81.4339 11.4856 81.3136 10.9563 81.073 10.6194C80.8324 10.2665 80.3752 10.0901 79.7015 10.0901V9.58482C80.2148 9.63295 80.7121 9.65701 81.1933 9.65701C81.7387 9.65701 82.2439 9.63295 82.7091 9.58482C83.1903 9.52066 83.6314 9.43244 84.0324 9.32016ZM90.9571 26.5234C90.0589 26.5234 89.2248 26.4351 88.4548 26.2587C87.7009 26.0823 87.0914 25.8096 86.6262 25.4406C86.1771 25.0878 85.9525 24.6306 85.9525 24.0692C85.9525 23.5399 86.1771 23.0747 86.6262 22.6737C87.0754 22.2727 87.709 21.9679 88.527 21.7594L88.6954 22.1444C88.3586 22.2887 88.0939 22.5213 87.9014 22.8421C87.725 23.1629 87.6368 23.5158 87.6368 23.9008C87.6368 24.6065 87.9656 25.1519 88.6233 25.5369C89.2809 25.9218 90.1471 26.1143 91.2218 26.1143C91.9436 26.1143 92.6253 26.0181 93.2669 25.8256C93.9246 25.6492 94.4539 25.3524 94.8549 24.9354C95.272 24.5183 95.4805 23.981 95.4805 23.3233C95.4805 22.81 95.296 22.3769 94.9271 22.0241C94.5582 21.6872 93.8283 21.5188 92.7376 21.5188H91.0534C90.4919 21.5188 89.9706 21.4707 89.4894 21.3744C89.0082 21.2782 88.6152 21.0937 88.3105 20.821C88.0217 20.5323 87.8774 20.1313 87.8774 19.618C87.8774 19.0406 88.118 18.4952 88.5992 17.9819C89.0804 17.4686 89.8904 16.9634 91.0293 16.4661L91.318 16.6826C90.8529 16.9393 90.4358 17.204 90.0669 17.4766C89.714 17.7333 89.5376 18.0541 89.5376 18.4391C89.5376 18.9523 89.9065 19.209 90.6443 19.209H93.5075C94.2614 19.209 94.9431 19.3133 95.5527 19.5218C96.1622 19.7143 96.6514 20.027 97.0203 20.4601C97.3893 20.8932 97.5737 21.4627 97.5737 22.1684C97.5737 22.9223 97.3251 23.6281 96.8279 24.2857C96.3466 24.9594 95.6168 25.4968 94.6384 25.8978C93.6599 26.3148 92.4328 26.5234 90.9571 26.5234ZM91.1015 16.8751C90.2834 16.8751 89.5376 16.7468 88.8639 16.4902C88.1902 16.2175 87.6608 15.8004 87.2759 15.239C86.8909 14.6776 86.6984 13.9558 86.6984 13.0736C86.6984 12.1914 86.8909 11.4696 87.2759 10.9081C87.6608 10.3307 88.1902 9.91365 88.8639 9.65701C89.5376 9.38432 90.2834 9.24798 91.1015 9.24798C91.9516 9.24798 92.7055 9.38432 93.3632 9.65701C94.0208 9.91365 94.5421 10.3307 94.9271 10.9081C95.3121 11.4696 95.5045 12.1914 95.5045 13.0736C95.5045 13.9558 95.3121 14.6776 94.9271 15.239C94.5421 15.8004 94.0208 16.2175 93.3632 16.4902C92.7055 16.7468 91.9516 16.8751 91.1015 16.8751ZM91.1015 16.442C91.6629 16.442 92.096 16.2014 92.4007 15.7202C92.7055 15.239 92.8579 14.3568 92.8579 13.0736C92.8579 11.7904 92.7055 10.9081 92.4007 10.4269C92.096 9.92969 91.6629 9.68107 91.1015 9.68107C90.5721 9.68107 90.1471 9.92969 89.8263 10.4269C89.5055 10.9081 89.3451 11.7904 89.3451 13.0736C89.3451 14.3568 89.5055 15.239 89.8263 15.7202C90.1471 16.2014 90.5721 16.442 91.1015 16.442ZM94.6624 11.2691L94.2293 11.1006C94.4539 10.5392 94.8389 10.05 95.3842 9.63295C95.9296 9.2159 96.499 9.00737 97.0925 9.00737C97.5417 9.00737 97.8945 9.1357 98.1512 9.39234C98.4239 9.63295 98.5602 9.97781 98.5602 10.4269C98.5602 10.9242 98.4239 11.2771 98.1512 11.4856C97.8945 11.6941 97.6219 11.7984 97.3331 11.7984C97.0765 11.7984 96.8359 11.7102 96.6113 11.5337C96.4028 11.3573 96.2825 11.0846 96.2504 10.7157C96.2183 10.3307 96.3386 9.84147 96.6113 9.24798L96.876 9.34422C96.2344 9.60086 95.7612 9.87355 95.4564 10.1623C95.1677 10.435 94.903 10.8039 94.6624 11.2691ZM103.015 3.16069V11.9187C103.416 10.9242 103.977 10.2345 104.699 9.84949C105.437 9.44848 106.215 9.24798 107.033 9.24798C107.674 9.24798 108.196 9.3362 108.597 9.51264C109.014 9.67305 109.359 9.89761 109.631 10.1863C109.92 10.4911 110.128 10.8841 110.257 11.3653C110.385 11.8465 110.449 12.4961 110.449 13.3142V19.7624C110.449 20.4361 110.578 20.8932 110.834 21.1338C111.107 21.3744 111.556 21.4947 112.182 21.4947V22C111.893 21.984 111.46 21.9679 110.882 21.9519C110.305 21.9198 109.743 21.9038 109.198 21.9038C108.637 21.9038 108.083 21.9198 107.538 21.9519C107.009 21.9679 106.616 21.984 106.359 22V21.4947C106.904 21.4947 107.289 21.3744 107.514 21.1338C107.738 20.8932 107.851 20.4361 107.851 19.7624V12.6405C107.851 12.1753 107.811 11.7583 107.73 11.3894C107.65 11.0044 107.474 10.6996 107.201 10.4751C106.944 10.2345 106.559 10.1142 106.046 10.1142C105.469 10.1142 104.947 10.2826 104.482 10.6194C104.033 10.9402 103.672 11.3894 103.4 11.9668C103.143 12.5443 103.015 13.2019 103.015 13.9398V19.7624C103.015 20.4361 103.127 20.8932 103.351 21.1338C103.576 21.3744 103.961 21.4947 104.506 21.4947V22C104.234 21.984 103.833 21.9679 103.303 21.9519C102.79 21.9198 102.261 21.9038 101.715 21.9038C101.154 21.9038 100.576 21.9198 99.983 21.9519C99.4055 21.9679 98.9724 21.984 98.6837 22V21.4947C99.3093 21.4947 99.7504 21.3744 100.007 21.1338C100.28 20.8932 100.416 20.4361 100.416 19.7624V6.04794C100.416 5.32613 100.288 4.7968 100.031 4.45996C99.7905 4.10707 99.3414 3.93063 98.6837 3.93063V3.42536C99.197 3.47348 99.6942 3.49754 100.175 3.49754C100.705 3.49754 101.21 3.47348 101.691 3.42536C102.172 3.3612 102.614 3.27297 103.015 3.16069ZM116.891 5.61485V9.60888H120.211V10.0901H116.891V19.5458C116.891 20.2035 117.011 20.6687 117.252 20.9413C117.492 21.214 117.837 21.3504 118.286 21.3504C118.703 21.3504 119.072 21.1819 119.393 20.8451C119.73 20.5083 120.019 19.9388 120.259 19.1368L120.716 19.3052C120.524 20.1554 120.179 20.8772 119.682 21.4707C119.201 22.0481 118.487 22.3368 117.54 22.3368C116.995 22.3368 116.538 22.2647 116.169 22.1203C115.8 21.992 115.479 21.7995 115.207 21.5429C114.854 21.1739 114.613 20.7328 114.485 20.2195C114.356 19.7062 114.292 19.0245 114.292 18.1744V10.0901H112.079V9.60888H114.292V6.09606C114.79 6.08002 115.255 6.03992 115.688 5.97576C116.121 5.89556 116.522 5.77526 116.891 5.61485ZM125.157 9.24798C125.798 9.24798 126.352 9.35224 126.817 9.56076C127.298 9.75325 127.643 9.92969 127.851 10.0901C128.381 10.5071 128.709 10.2345 128.838 9.27204H129.367C129.335 9.72117 129.311 10.2665 129.295 10.9081C129.279 11.5337 129.271 12.3678 129.271 13.4104H128.742C128.645 12.8169 128.477 12.2395 128.236 11.6781C128.012 11.1167 127.675 10.6515 127.226 10.2826C126.793 9.91365 126.223 9.72919 125.517 9.72919C124.988 9.72919 124.547 9.88157 124.194 10.1863C123.841 10.4751 123.665 10.9081 123.665 11.4856C123.665 11.9668 123.809 12.3839 124.098 12.7367C124.387 13.0896 124.756 13.4185 125.205 13.7232C125.67 14.028 126.167 14.3568 126.696 14.7097C127.29 15.1107 127.819 15.5117 128.284 15.9127C128.766 16.2977 129.143 16.7308 129.415 17.212C129.704 17.6932 129.848 18.2546 129.848 18.8962C129.848 19.6341 129.648 20.2596 129.247 20.7729C128.862 21.2862 128.349 21.6792 127.707 21.9519C127.065 22.2085 126.36 22.3368 125.59 22.3368C125.205 22.3368 124.844 22.2967 124.507 22.2165C124.17 22.1524 123.857 22.0642 123.569 21.9519C123.392 21.8556 123.216 21.7594 123.039 21.6632C122.879 21.5509 122.718 21.4466 122.558 21.3504C122.398 21.2381 122.253 21.2541 122.125 21.3985C121.997 21.5429 121.9 21.7995 121.836 22.1684H121.307C121.339 21.6551 121.363 21.0296 121.379 20.2917C121.395 19.5539 121.403 18.5754 121.403 17.3563H121.932C122.045 18.2386 122.213 19.0165 122.438 19.6902C122.662 20.3639 122.991 20.8932 123.424 21.2782C123.873 21.6471 124.483 21.8316 125.253 21.8316C125.558 21.8316 125.862 21.7674 126.167 21.6391C126.472 21.4947 126.72 21.2702 126.913 20.9654C127.121 20.6606 127.226 20.2516 127.226 19.7383C127.226 19.0325 126.977 18.4551 126.48 18.006C125.999 17.5408 125.373 17.0516 124.603 16.5383C124.058 16.1533 123.536 15.7764 123.039 15.4074C122.558 15.0225 122.165 14.5974 121.86 14.1322C121.556 13.651 121.403 13.0816 121.403 12.424C121.403 11.7021 121.572 11.1087 121.908 10.6435C122.261 10.1783 122.726 9.83345 123.304 9.60888C123.881 9.36828 124.499 9.24798 125.157 9.24798Z" fill="#1565C0"/>
</svg>
