<svg width="190" height="41" viewBox="0 0 190 41" fill="none" xmlns="http://www.w3.org/2000/svg">
<path d="M20.2914 0C30.2103 0 38.4667 7.11705 40.2331 16.5231L36.7034 16.5536C36.5613 15.7239 36.0528 14.4964 34.5253 12.4103C32.9978 10.3241 30.9137 8.71013 28.5117 7.75306C26.1097 6.79601 23.4868 6.53441 20.9431 6.9984C18.3994 7.46242 16.0377 8.63329 14.1284 10.3768C12.5068 11.8576 11.2628 13.7047 10.5003 15.764C9.73781 17.8233 9.47888 20.0351 9.74502 22.2149C10.0112 24.3946 10.7948 26.479 12.0304 28.2943C13.266 30.1096 14.9176 31.6033 16.8478 32.6504C18.778 33.6975 20.9307 34.2677 23.1262 34.3137C25.3216 34.3597 27.4962 33.8801 29.4685 32.9148C31.4408 31.9494 33.1538 30.5262 34.4643 28.7642C35.7748 27.0023 36.4394 25.7094 36.6679 24.8793L40.0648 24.8662C37.9902 33.8696 29.9248 40.5828 20.2914 40.5828C9.08476 40.5828 0 31.498 0 20.2914C0 9.08476 9.08476 0 20.2914 0Z" fill="#FFFFFE"/>
<path fill-rule="evenodd" clip-rule="evenodd" d="M16.3131 12.7697C18.3756 10.8865 21.1018 9.89977 23.8918 10.0266C26.6819 10.1534 29.3073 11.3834 31.1905 13.4459C33.0737 15.5085 34.0604 18.2348 33.9336 21.0249C33.8067 23.8149 32.5768 26.4404 30.5143 28.3235C28.4517 30.2067 25.7255 31.1932 22.9355 31.0664C20.1454 30.9396 17.52 29.7096 15.6368 27.6471C13.7537 25.5845 12.7669 22.8584 12.8938 20.0683C13.0206 17.2783 14.2505 14.6529 16.3131 12.7697ZM23.8184 11.6451C21.4576 11.5377 19.1508 12.3726 17.4055 13.9661C15.6603 15.5596 14.6195 17.7812 14.5122 20.142C14.4049 22.5028 15.2398 24.8096 16.8333 26.5548C18.4267 28.3 20.6482 29.3408 23.0089 29.4481C25.3698 29.5555 27.6766 28.7204 29.4218 27.1269C31.167 25.5334 32.2078 23.312 32.3151 20.9512C32.4224 18.5904 31.5875 16.2836 29.9941 14.5384C28.4006 12.7932 26.1792 11.7524 23.8184 11.6451Z" fill="#FFFFFE"/>
<path d="M62.778 10.5051C64.1666 10.5051 65.3028 10.7155 66.1864 11.1363C67.0912 11.536 67.8907 12.0094 68.585 12.5565C69.0058 12.8721 69.3214 12.9141 69.5318 12.6827C69.7632 12.4302 69.921 11.8516 70.0052 10.9469H70.7311C70.689 11.7464 70.6574 12.7143 70.6364 13.8504C70.6154 14.9655 70.6048 16.4594 70.6048 18.3319H69.879C69.7317 17.4062 69.5844 16.6487 69.4371 16.0596C69.3109 15.4705 69.132 14.9655 68.9006 14.5447C68.6902 14.1239 68.3956 13.7137 68.0169 13.3139C67.4068 12.5565 66.6598 12.0094 65.7762 11.6728C64.8925 11.3361 63.9562 11.1678 62.9673 11.1678C61.8943 11.1678 60.9475 11.4413 60.1269 11.9884C59.3064 12.5144 58.612 13.2718 58.044 14.2607C57.4969 15.2496 57.0761 16.4173 56.7816 17.7639C56.487 19.1104 56.3397 20.5832 56.3397 22.1823C56.3397 23.8234 56.4975 25.3172 56.8131 26.6638C57.1287 27.9893 57.5811 29.136 58.1702 30.1038C58.7804 31.0506 59.5062 31.787 60.3478 32.313C61.2105 32.818 62.1678 33.0705 63.2198 33.0705C64.0824 33.0705 64.9766 32.9021 65.9024 32.5655C66.8282 32.2078 67.5646 31.6713 68.1116 30.9559C68.7007 30.3247 69.1005 29.6199 69.3109 28.8414C69.5423 28.0419 69.7317 26.9583 69.879 25.5907H70.6048C70.6048 27.5264 70.6154 29.0939 70.6364 30.2932C70.6574 31.4714 70.689 32.4708 70.7311 33.2914H70.0052C69.921 32.3867 69.7738 31.8186 69.5634 31.5871C69.374 31.3557 69.0479 31.3873 68.585 31.6818C67.8065 32.2289 66.9754 32.7128 66.0918 33.1336C65.2291 33.5333 64.114 33.7332 62.7464 33.7332C60.6634 33.7332 58.8435 33.2809 57.2865 32.3761C55.7296 31.4714 54.5198 30.1669 53.6571 28.4627C52.7945 26.7585 52.3632 24.7071 52.3632 22.3085C52.3632 19.952 52.805 17.8901 53.6887 16.1227C54.5934 14.3554 55.8242 12.9773 57.3812 11.9884C58.9382 10.9995 60.7371 10.5051 62.778 10.5051ZM78.4108 8.54834V30.3563C78.4108 31.24 78.5791 31.8396 78.9157 32.1552C79.2734 32.4708 79.8625 32.6286 80.6831 32.6286V33.2914C80.3254 33.2703 79.7678 33.2493 79.0104 33.2283C78.253 33.1862 77.4955 33.1651 76.7381 33.1651C75.9806 33.1651 75.2127 33.1862 74.4342 33.2283C73.6768 33.2493 73.1087 33.2703 72.73 33.2914V32.6286C73.5505 32.6286 74.1291 32.4708 74.4658 32.1552C74.8234 31.8396 75.0023 31.24 75.0023 30.3563V12.3355C75.0023 11.3887 74.8445 10.6944 74.5289 10.2526C74.2133 9.7897 73.6136 9.55826 72.73 9.55826V8.8955C73.4032 8.95862 74.0555 8.99018 74.6867 8.99018C75.381 8.99018 76.0438 8.95862 76.675 8.8955C77.3062 8.81134 77.8848 8.69562 78.4108 8.54834ZM85.3522 9.0533C86.0045 9.0533 86.5515 9.2637 86.9934 9.6845C87.4352 10.0843 87.6561 10.5892 87.6561 11.1994C87.6561 11.8095 87.4352 12.325 86.9934 12.7458C86.5515 13.1456 86.0045 13.3455 85.3522 13.3455C84.7 13.3455 84.153 13.1456 83.7111 12.7458C83.2693 12.325 83.0484 11.8095 83.0484 11.1994C83.0484 10.5892 83.2693 10.0843 83.7111 9.6845C84.153 9.2637 84.7 9.0533 85.3522 9.0533ZM87.2458 16.6593V30.3563C87.2458 31.24 87.4142 31.8396 87.7508 32.1552C88.1085 32.4708 88.6976 32.6286 89.5182 32.6286V33.2914C89.1605 33.2703 88.6029 33.2493 87.8455 33.2283C87.1091 33.1862 86.3516 33.1651 85.5732 33.1651C84.8368 33.1651 84.0793 33.1862 83.3008 33.2283C82.5224 33.2493 81.9438 33.2703 81.565 33.2914V32.6286C82.3856 32.6286 82.9642 32.4708 83.3008 32.1552C83.6585 31.8396 83.8374 31.24 83.8374 30.3563V20.4465C83.8374 19.4997 83.6796 18.8053 83.364 18.3635C83.0484 17.9006 82.4487 17.6692 81.565 17.6692V17.0064C82.2383 17.0695 82.8906 17.1011 83.5218 17.1011C84.2371 17.1011 84.8999 17.0695 85.51 17.0064C86.1412 16.9223 86.7198 16.8065 87.2458 16.6593ZM101.379 16.5646C102.22 16.5646 102.904 16.6803 103.43 16.9117C103.977 17.1221 104.429 17.4167 104.787 17.7954C105.166 18.1952 105.429 18.7107 105.576 19.3419C105.744 19.9731 105.829 20.8252 105.829 21.8982V30.3563C105.829 31.24 105.997 31.8396 106.333 32.1552C106.691 32.4708 107.28 32.6286 108.101 32.6286V33.2914C107.743 33.2703 107.186 33.2493 106.428 33.2283C105.671 33.1862 104.924 33.1651 104.187 33.1651C103.472 33.1651 102.757 33.1862 102.041 33.2283C101.347 33.2493 100.821 33.2703 100.463 33.2914V32.6286C101.179 32.6286 101.684 32.4708 101.978 32.1552C102.273 31.8396 102.42 31.24 102.42 30.3563V21.0145C102.42 20.4044 102.367 19.8573 102.262 19.3734C102.157 18.8685 101.936 18.4687 101.599 18.1741C101.263 17.8585 100.758 17.7007 100.085 17.7007C99.3061 17.7007 98.6118 17.9217 98.0016 18.3635C97.4125 18.8053 96.9391 19.4155 96.5814 20.194C96.2448 20.9514 96.0765 21.8035 96.0765 22.7503V30.3563C96.0765 31.24 96.2238 31.8396 96.5183 32.1552C96.8339 32.4708 97.3389 32.6286 98.0332 32.6286V33.2914C97.6966 33.2703 97.1811 33.2493 96.4868 33.2283C95.8135 33.1862 95.1086 33.1651 94.3722 33.1651C93.6569 33.1651 92.91 33.1862 92.1315 33.2283C91.353 33.2493 90.7744 33.2703 90.3957 33.2914V32.6286C91.2162 32.6286 91.7948 32.4708 92.1315 32.1552C92.4892 31.8396 92.668 31.24 92.668 30.3563V20.4465C92.668 19.4997 92.5102 18.8053 92.1946 18.3635C91.879 17.9006 91.2794 17.6692 90.3957 17.6692V17.0064C91.069 17.0695 91.7212 17.1011 92.3524 17.1011C93.0678 17.1011 93.7305 17.0695 94.3407 17.0064C94.9719 16.9223 95.5505 16.8065 96.0765 16.6593V20.0993C96.6235 18.7948 97.3704 17.8796 98.3172 17.3536C99.2851 16.8276 100.306 16.5646 101.379 16.5646ZM114.651 16.5646C115.492 16.5646 116.218 16.7013 116.828 16.9749C117.46 17.2273 117.912 17.4588 118.185 17.6692C118.88 18.2162 119.311 17.8585 119.479 16.5961H120.174C120.132 17.1853 120.1 17.9006 120.079 18.7422C120.058 19.5628 120.048 20.6569 120.048 22.0245H119.353C119.227 21.246 119.006 20.4885 118.69 19.7521C118.396 19.0157 117.954 18.4056 117.365 17.9217C116.797 17.4377 116.05 17.1958 115.124 17.1958C114.43 17.1958 113.851 17.3957 113.388 17.7954C112.925 18.1741 112.694 18.7422 112.694 19.4997C112.694 20.1309 112.883 20.6779 113.262 21.1408C113.641 21.6037 114.125 22.035 114.714 22.4347C115.324 22.8345 115.976 23.2658 116.671 23.7287C117.449 24.2547 118.143 24.7807 118.754 25.3067C119.385 25.8117 119.879 26.3797 120.237 27.0109C120.616 27.6421 120.805 28.3785 120.805 29.2201C120.805 30.188 120.542 31.0085 120.016 31.6818C119.511 32.3551 118.838 32.8706 117.996 33.2283C117.155 33.5649 116.229 33.7332 115.219 33.7332C114.714 33.7332 114.24 33.6806 113.799 33.5754C113.357 33.4913 112.947 33.3755 112.568 33.2283C112.336 33.102 112.105 32.9758 111.873 32.8495C111.663 32.7023 111.453 32.5655 111.242 32.4393C111.032 32.292 110.843 32.313 110.674 32.5024C110.506 32.6917 110.38 33.0284 110.295 33.5123H109.601C109.643 32.839 109.675 32.0185 109.696 31.0506C109.717 30.0828 109.727 28.7993 109.727 27.2003H110.422C110.569 28.3575 110.79 29.3779 111.084 30.2616C111.379 31.1453 111.81 31.8396 112.378 32.3446C112.968 32.8285 113.767 33.0705 114.777 33.0705C115.177 33.0705 115.577 32.9863 115.976 32.818C116.376 32.6286 116.702 32.3341 116.955 31.9343C117.228 31.5345 117.365 30.998 117.365 30.3247C117.365 29.399 117.039 28.6415 116.387 28.0524C115.755 27.4423 114.935 26.8005 113.925 26.1273C113.21 25.6223 112.526 25.1279 111.873 24.6439C111.242 24.139 110.727 23.5814 110.327 22.9713C109.927 22.3401 109.727 21.5931 109.727 20.7305C109.727 19.7837 109.948 19.0052 110.39 18.3951C110.853 17.7849 111.463 17.3325 112.221 17.038C112.978 16.7224 113.788 16.5646 114.651 16.5646ZM126.206 9.0533C126.859 9.0533 127.406 9.2637 127.848 9.6845C128.289 10.0843 128.51 10.5892 128.51 11.1994C128.51 11.8095 128.289 12.325 127.848 12.7458C127.406 13.1456 126.859 13.3455 126.206 13.3455C125.554 13.3455 125.007 13.1456 124.565 12.7458C124.123 12.325 123.903 11.8095 123.903 11.1994C123.903 10.5892 124.123 10.0843 124.565 9.6845C125.007 9.2637 125.554 9.0533 126.206 9.0533ZM128.1 16.6593V30.3563C128.1 31.24 128.268 31.8396 128.605 32.1552C128.963 32.4708 129.552 32.6286 130.372 32.6286V33.2914C130.015 33.2703 129.457 33.2493 128.7 33.2283C127.963 33.1862 127.206 33.1651 126.427 33.1651C125.691 33.1651 124.933 33.1862 124.155 33.2283C123.377 33.2493 122.798 33.2703 122.419 33.2914V32.6286C123.24 32.6286 123.818 32.4708 124.155 32.1552C124.513 31.8396 124.692 31.24 124.692 30.3563V20.4465C124.692 19.4997 124.534 18.8053 124.218 18.3635C123.903 17.9006 123.303 17.6692 122.419 17.6692V17.0064C123.092 17.0695 123.745 17.1011 124.376 17.1011C125.091 17.1011 125.754 17.0695 126.364 17.0064C126.995 16.9223 127.574 16.8065 128.1 16.6593ZM137.183 39.2247C136.005 39.2247 134.911 39.1089 133.901 38.8775C132.912 38.6461 132.112 38.2884 131.502 37.8045C130.913 37.3416 130.619 36.7419 130.619 36.0055C130.619 35.3112 130.913 34.7011 131.502 34.1751C132.091 33.6491 132.923 33.2493 133.996 32.9758L134.216 33.4807C133.775 33.6701 133.427 33.9752 133.175 34.396C132.944 34.8168 132.828 35.2797 132.828 35.7846C132.828 36.7104 133.259 37.4257 134.122 37.9307C134.984 38.4357 136.121 38.6881 137.53 38.6881C138.477 38.6881 139.371 38.5619 140.213 38.3094C141.076 38.078 141.77 37.6887 142.296 37.1417C142.843 36.5947 143.116 35.8898 143.116 35.0272C143.116 34.3539 142.874 33.7858 142.391 33.3229C141.907 32.8811 140.949 32.6602 139.519 32.6602H137.309C136.573 32.6602 135.889 32.5971 135.258 32.4708C134.627 32.3446 134.111 32.1026 133.712 31.7449C133.333 31.3662 133.143 30.8402 133.143 30.1669C133.143 29.4095 133.459 28.6941 134.09 28.0209C134.721 27.3476 135.784 26.6848 137.278 26.0326L137.657 26.3166C137.046 26.6533 136.499 27.0004 136.015 27.3581C135.553 27.6947 135.321 28.1155 135.321 28.6205C135.321 29.2938 135.805 29.6304 136.773 29.6304H140.528C141.517 29.6304 142.412 29.7672 143.211 30.0407C144.011 30.2932 144.652 30.7035 145.136 31.2715C145.62 31.8396 145.862 32.5865 145.862 33.5123C145.862 34.5012 145.536 35.4269 144.884 36.2896C144.253 37.1733 143.295 37.8781 142.012 38.4041C140.728 38.9511 139.119 39.2247 137.183 39.2247ZM137.372 26.5691C136.299 26.5691 135.321 26.4008 134.437 26.0641C133.554 25.7065 132.859 25.1594 132.354 24.423C131.849 23.6866 131.597 22.7398 131.597 21.5826C131.597 20.4254 131.849 19.4786 132.354 18.7422C132.859 17.9848 133.554 17.4377 134.437 17.1011C135.321 16.7434 136.299 16.5646 137.372 16.5646C138.488 16.5646 139.476 16.7434 140.339 17.1011C141.202 17.4377 141.886 17.9848 142.391 18.7422C142.895 19.4786 143.148 20.4254 143.148 21.5826C143.148 22.7398 142.895 23.6866 142.391 24.423C141.886 25.1594 141.202 25.7065 140.339 26.0641C139.476 26.4008 138.488 26.5691 137.372 26.5691ZM137.372 26.001C138.109 26.001 138.677 25.6854 139.077 25.0542C139.476 24.423 139.676 23.2658 139.676 21.5826C139.676 19.8994 139.476 18.7422 139.077 18.111C138.677 17.4588 138.109 17.1327 137.372 17.1327C136.678 17.1327 136.121 17.4588 135.7 18.111C135.279 18.7422 135.069 19.8994 135.069 21.5826C135.069 23.2658 135.279 24.423 135.7 25.0542C136.121 25.6854 136.678 26.001 137.372 26.001ZM142.043 19.2156L141.475 18.9947C141.77 18.2583 142.275 17.6166 142.99 17.0695C143.706 16.5225 144.452 16.249 145.231 16.249C145.82 16.249 146.283 16.4173 146.62 16.7539C146.977 17.0695 147.156 17.5219 147.156 18.111C147.156 18.7633 146.977 19.2261 146.62 19.4997C146.283 19.7732 145.925 19.9099 145.547 19.9099C145.21 19.9099 144.894 19.7942 144.6 19.5628C144.326 19.3313 144.168 18.9737 144.126 18.4897C144.084 17.9848 144.242 17.3431 144.6 16.5646L144.947 16.6908C144.105 17.0275 143.485 17.3851 143.085 17.7639C142.706 18.1215 142.359 18.6055 142.043 19.2156ZM152.999 8.5799V20.0677C153.525 18.7633 154.261 17.8585 155.208 17.3536C156.176 16.8276 157.196 16.5646 158.269 16.5646C159.111 16.5646 159.795 16.6803 160.321 16.9117C160.868 17.1221 161.32 17.4167 161.678 17.7954C162.057 18.1952 162.33 18.7107 162.498 19.3419C162.667 19.9731 162.751 20.8252 162.751 21.8982V30.3563C162.751 31.24 162.919 31.8396 163.256 32.1552C163.614 32.4708 164.203 32.6286 165.023 32.6286V33.2914C164.645 33.2703 164.076 33.2493 163.319 33.2283C162.562 33.1862 161.825 33.1651 161.11 33.1651C160.373 33.1651 159.648 33.1862 158.932 33.2283C158.238 33.2493 157.722 33.2703 157.386 33.2914V32.6286C158.101 32.6286 158.606 32.4708 158.901 32.1552C159.195 31.8396 159.342 31.24 159.342 30.3563V21.0145C159.342 20.4044 159.29 19.8573 159.185 19.3734C159.079 18.8685 158.848 18.4687 158.49 18.1741C158.154 17.8585 157.649 17.7007 156.975 17.7007C156.218 17.7007 155.534 17.9217 154.924 18.3635C154.335 18.7843 153.862 19.3734 153.504 20.1309C153.167 20.8883 152.999 21.7509 152.999 22.7188V30.3563C152.999 31.24 153.146 31.8396 153.441 32.1552C153.735 32.4708 154.24 32.6286 154.956 32.6286V33.2914C154.598 33.2703 154.072 33.2493 153.378 33.2283C152.704 33.1862 152.01 33.1651 151.295 33.1651C150.558 33.1651 149.801 33.1862 149.022 33.2283C148.265 33.2493 147.697 33.2703 147.318 33.2914V32.6286C148.139 32.6286 148.717 32.4708 149.054 32.1552C149.412 31.8396 149.59 31.24 149.59 30.3563V12.3671C149.59 11.4203 149.422 10.726 149.085 10.2841C148.77 9.82126 148.181 9.58982 147.318 9.58982V8.92706C147.991 8.99018 148.644 9.02174 149.275 9.02174C149.969 9.02174 150.632 8.99018 151.263 8.92706C151.894 8.8429 152.473 8.72718 152.999 8.5799ZM171.2 11.799V17.038H175.556V17.6692H171.2V30.0723C171.2 30.9349 171.358 31.5451 171.674 31.9027C171.989 32.2604 172.442 32.4393 173.031 32.4393C173.578 32.4393 174.062 32.2183 174.483 31.7765C174.924 31.3347 175.303 30.5877 175.619 29.5357L176.218 29.7567C175.966 30.8718 175.514 31.8186 174.861 32.5971C174.23 33.3545 173.294 33.7332 172.052 33.7332C171.337 33.7332 170.737 33.6385 170.254 33.4492C169.77 33.2809 169.349 33.0284 168.991 32.6917C168.528 32.2078 168.213 31.6292 168.044 30.9559C167.876 30.2827 167.792 29.3885 167.792 28.2733V17.6692H164.888V17.038H167.792V12.4302C168.444 12.4092 169.054 12.3566 169.622 12.2724C170.19 12.1672 170.716 12.0094 171.2 11.799ZM182.042 16.5646C182.884 16.5646 183.61 16.7013 184.22 16.9749C184.851 17.2273 185.304 17.4588 185.577 17.6692C186.272 18.2162 186.703 17.8585 186.871 16.5961H187.565C187.523 17.1853 187.492 17.9006 187.471 18.7422C187.45 19.5628 187.439 20.6569 187.439 22.0245H186.745C186.619 21.246 186.398 20.4885 186.082 19.7521C185.788 19.0157 185.346 18.4056 184.757 17.9217C184.189 17.4377 183.442 17.1958 182.516 17.1958C181.822 17.1958 181.243 17.3957 180.78 17.7954C180.317 18.1741 180.086 18.7422 180.086 19.4997C180.086 20.1309 180.275 20.6779 180.654 21.1408C181.033 21.6037 181.516 22.035 182.106 22.4347C182.716 22.8345 183.368 23.2658 184.062 23.7287C184.841 24.2547 185.535 24.7807 186.145 25.3067C186.776 25.8117 187.271 26.3797 187.629 27.0109C188.007 27.6421 188.197 28.3785 188.197 29.2201C188.197 30.188 187.934 31.0085 187.408 31.6818C186.903 32.3551 186.229 32.8706 185.388 33.2283C184.546 33.5649 183.62 33.7332 182.611 33.7332C182.106 33.7332 181.632 33.6806 181.19 33.5754C180.749 33.4913 180.338 33.3755 179.96 33.2283C179.728 33.102 179.497 32.9758 179.265 32.8495C179.055 32.7023 178.844 32.5655 178.634 32.4393C178.424 32.292 178.234 32.313 178.066 32.5024C177.898 32.6917 177.771 33.0284 177.687 33.5123H176.993C177.035 32.839 177.067 32.0185 177.088 31.0506C177.109 30.0828 177.119 28.7993 177.119 27.2003H177.813C177.961 28.3575 178.182 29.3779 178.476 30.2616C178.771 31.1453 179.202 31.8396 179.77 32.3446C180.359 32.8285 181.159 33.0705 182.169 33.0705C182.568 33.0705 182.968 32.9863 183.368 32.818C183.768 32.6286 184.094 32.3341 184.346 31.9343C184.62 31.5345 184.757 30.998 184.757 30.3247C184.757 29.399 184.431 28.6415 183.778 28.0524C183.147 27.4423 182.327 26.8005 181.317 26.1273C180.601 25.6223 179.917 25.1279 179.265 24.6439C178.634 24.139 178.119 23.5814 177.719 22.9713C177.319 22.3401 177.119 21.5931 177.119 20.7305C177.119 19.7837 177.34 19.0052 177.782 18.3951C178.245 17.7849 178.855 17.3325 179.612 17.038C180.37 16.7224 181.18 16.5646 182.042 16.5646Z" fill="#FFFFFE"/>
</svg>
